<svg width="1688" height="199" fill="none" xmlns="http://www.w3.org/2000/svg"><path d="M1457.09 192.347h183.97l11.29-44.932h-115.67l6.25-24.985h107.4l11.28-45.134h-107.4l6.25-24.985h115.66l11.29-45.134h-183.98l-46.34 185.17zm-147.51 0h68.31l34.66-138.424h63.28l11.68-46.746h-194.85l-11.69 46.746h63.27l-34.66 138.424zm-209.16-92.484c9.47-37.679 30.83-52.388 58.64-52.388 27.81 0 41.91 14.709 32.44 52.388-9.47 37.678-30.83 52.387-58.64 52.387-27.8 0-41.91-14.709-32.44-52.387zm-72.74 0c-23.98 95.909 51.99 99.133 93.5 99.133s119.09-3.022 143.07-99.133c23.97-95.91-51.99-99.134-93.5-99.134s-119.09 3.224-143.07 99.134zm-260.951 92.484h134.605c57.429 0 95.111-27.403 111.436-92.484 17.12-68.305-7.86-92.686-66.5-92.686H813.276l-46.547 185.17zM869.698 53.923h39.294c31.233 0 39.696 16.522 32.442 45.94-7.456 29.216-24.181 45.94-55.414 45.94h-39.294l22.972-91.88zM680.686 192.347h68.31l46.346-185.17h-68.31l-46.346 185.17zm-148.107 0h68.311l34.659-138.424h63.272l11.688-46.746H515.653l-11.688 46.746h63.273l-34.659 138.424zm-292.586 0h65.489l25.995-103.768h.403l46.749 103.768h74.96l46.346-185.17h-65.489l-25.793 102.76h-.806L364.322 7.177h-77.983l-46.346 185.17zM0 192.347h72.743l12.494-21.358h71.333l2.015 21.358h72.743L204.125 7.177h-84.028L0 192.347zm152.943-66.29h-41.309l36.07-62.664h.403l4.836 62.664z" fill="#000"/></svg>