<?xml version="1.0" encoding="UTF-8" standalone="no"?>
<svg
   xmlns:dc="http://purl.org/dc/elements/1.1/"
   xmlns:cc="http://creativecommons.org/ns#"
   xmlns:rdf="http://www.w3.org/1999/02/22-rdf-syntax-ns#"
   xmlns:svg="http://www.w3.org/2000/svg"
   xmlns="http://www.w3.org/2000/svg"
   xmlns:sodipodi="http://sodipodi.sourceforge.net/DTD/sodipodi-0.dtd"
   xmlns:inkscape="http://www.inkscape.org/namespaces/inkscape"
   viewBox="0 0 170 19.694"
   version="1.1"
   id="svg4"
   sodipodi:docname="backpackerz.svg"
   width="170"
   height="19.694"
   inkscape:version="0.92.2 5c3e80d, 2017-08-06">
  <metadata
     id="metadata10">
    <rdf:RDF>
      <cc:Work
         rdf:about="">
        <dc:format>image/svg+xml</dc:format>
        <dc:type
           rdf:resource="http://purl.org/dc/dcmitype/StillImage" />
      </cc:Work>
    </rdf:RDF>
  </metadata>
  <defs
     id="defs8" />
  <sodipodi:namedview
     pagecolor="#ffffff"
     bordercolor="#666666"
     borderopacity="1"
     objecttolerance="10"
     gridtolerance="10"
     guidetolerance="10"
     inkscape:pageopacity="0"
     inkscape:pageshadow="2"
     inkscape:window-width="640"
     inkscape:window-height="480"
     id="namedview6"
     showgrid="false"
     inkscape:zoom="1.9032258"
     inkscape:cx="85"
     inkscape:cy="62"
     inkscape:window-x="0"
     inkscape:window-y="0"
     inkscape:window-maximized="0"
     inkscape:current-layer="svg4" />
  <path
     d="m 9.145,9.392 c 2.08,0.669 3.226,2.462 3.226,4.469 0,3.104 -2.08,5.405 -5.919,5.405 H 0 V 0.428 h 4.906 c 4.106,0 6.612,1.766 6.612,5.138 0,1.739 -1.12,3.237 -2.373,3.826 z M 4.266,4.282 v 3.424 h 0.64 c 1.626,0 2.346,-0.722 2.346,-1.82 0,-1.096 -0.72,-1.605 -2.346,-1.605 h -0.64 z m 1.066,11.13 c 1.814,0 2.773,-0.695 2.773,-1.926 0,-1.177 -0.96,-1.927 -2.773,-1.927 H 4.266 v 3.854 h 1.066 z m 21.544,3.854 -0.88,-2.14 h -6.772 l -0.88,2.14 H 13.65 L 22.609,0 31.567,19.266 H 26.875 Z M 20.77,13.272 h 3.68 L 22.61,8.777 Z m 20.664,2.569 c 1.493,0 2.8,-0.562 3.786,-1.392 l 2.133,3.265 c -1.6,1.284 -4,1.98 -5.946,1.98 -5.653,0 -10.265,-4.415 -10.265,-9.847 C 31.142,4.415 35.754,0 41.407,0 c 1.946,0 4.346,0.696 5.946,1.98 L 45.22,5.245 A 5.861,5.861 0 0 0 41.434,3.853 c -3.307,0 -6.026,2.65 -6.026,5.994 0,3.345 2.72,5.994 6.026,5.994 z m 21.916,3.425 h -5.12 l -3.599,-6.53 -1.093,1.606 v 4.924 H 49.272 V 0.428 h 4.266 v 7.278 l 4.48,-7.278 h 4.905 L 57.218,8.884 Z M 70.336,0.428 c 5.066,0 7.305,3.157 7.305,6.636 0,3.479 -2.453,6.85 -6.879,6.85 h -1.226 v 5.352 H 65.27 V 0.428 Z m -0.027,9.633 c 1.84,0 3.066,-1.258 3.066,-2.89 0,-1.82 -1.226,-2.89 -3.066,-2.89 h -0.773 v 5.78 z m 19.917,9.205 -0.88,-2.14 h -6.772 l -0.88,2.14 H 77 L 85.959,0 94.917,19.266 H 90.225 Z M 84.12,13.272 H 87.8 L 85.96,8.777 Z m 20.664,2.569 c 1.493,0 2.8,-0.562 3.786,-1.392 l 2.133,3.265 c -1.6,1.284 -4,1.98 -5.946,1.98 -5.653,0 -10.265,-4.415 -10.265,-9.847 0,-5.432 4.612,-9.847 10.265,-9.847 1.946,0 4.346,0.696 5.946,1.98 l -2.133,3.265 a 5.861,5.861 0 0 0 -3.786,-1.392 c -3.307,0 -6.026,2.65 -6.026,5.994 0,3.345 2.72,5.994 6.026,5.994 z m 21.916,3.425 h -5.12 l -3.599,-6.53 -1.093,1.606 v 4.924 h -4.266 V 0.428 h 4.266 v 7.278 l 4.48,-7.278 h 4.906 l -5.706,8.456 z M 139.285,4.281 h -6.4 v 4.71 h 4.693 v 3.853 h -4.692 v 2.569 h 6.399 v 3.853 H 128.62 V 0.428 h 10.665 z m 15.784,14.985 h -4.693 l -2.613,-5.352 h -1.226 v 5.352 h -4.266 V 0.428 h 5.066 c 5.066,0 7.305,3.157 7.305,6.636 0,2.275 -1.04,4.522 -3.012,5.78 z M 146.537,4.281 v 5.78 h 0.773 c 1.84,0 3.066,-1.258 3.066,-2.89 0,-1.82 -1.226,-2.89 -3.066,-2.89 z m 23.036,14.985 h -12.798 l 7.04,-14.985 h -6.613 V 0.428 H 170 l -7.039,14.985 h 6.612 z"
     id="path2"
     inkscape:connector-curvature="0"
     style="fill:#7642e4" />
</svg>
