<?xml version="1.0" encoding="UTF-8" standalone="no"?>
<!-- Created with Inkscape (http://www.inkscape.org/) -->

<svg
   xmlns:dc="http://purl.org/dc/elements/1.1/"
   xmlns:cc="http://creativecommons.org/ns#"
   xmlns:rdf="http://www.w3.org/1999/02/22-rdf-syntax-ns#"
   xmlns:svg="http://www.w3.org/2000/svg"
   xmlns="http://www.w3.org/2000/svg"
   xmlns:sodipodi="http://sodipodi.sourceforge.net/DTD/sodipodi-0.dtd"
   xmlns:inkscape="http://www.inkscape.org/namespaces/inkscape"
   width="300"
   height="300"
   id="svg2"
   version="1.1"
   inkscape:version="0.47 r22583">
  <g
     inkscape:label="Layer 1"
     inkscape:groupmode="layer"
     id="layer1"
     transform="translate(-408.39217,-538.33548)">
    <path
       id="path4387"
       d="m 408.39222,838.33548 251.60927,0 0,-251.60931 -251.60932,0 z"
       style="fill:#231f20;fill-rule:nonzero;stroke:none" />
    <path
       id="path4389"
       d="m 456.77807,789.94479 251.60926,0 0,-251.60931 -251.60931,0 z"
       style="fill:#ed0080;fill-rule:nonzero;stroke:none" />
    <path
       id="path4391"
       d="m 506.92173,753.97017 -20.48844,0 0,-53.10241 -8.2225,0 0,-15.8881 8.2225,0 c 0,-6.13056 -0.27602,-13.52015 3.2057,-18.8178 4.31948,-6.41141 12.40638,-9.33626 19.93156,-9.33626 1.67065,0 7.3896,0.14043 11.70907,0.97334 l 0,15.75251 c -3.06528,-0.41645 -4.60034,-0.41645 -7.80604,-0.41645 -6.55185,0 -6.55185,4.31948 -6.55185,10.3096 l 0,1.53506 12.54681,0 0,15.8881 -12.54681,0 0,53.10241"
       style="fill:#ffffff;fill-rule:nonzero;stroke:none" />
    <path
       id="path4393"
       d="m 549.56926,753.97017 -20.48844,0 0,-70.80643 20.48844,0 z m 0,-77.21301 -20.48844,0 0,-19.79113 20.48844,0 0,19.79113"
       style="fill:#ffffff;fill-rule:nonzero;stroke:none" />
    <path
       id="path4395"
       d="m 579.25838,721.22062 c 0,4.4599 -0.41645,10.45002 1.95151,14.35305 1.95151,3.06527 5.57362,5.29765 9.20067,5.29765 10.59046,0 11.00691,-15.47166 11.00691,-22.72082 0,-7.24432 -0.55688,-21.87823 -10.87132,-21.87823 -4.03861,0 -7.38475,2.22753 -9.19583,5.7141 -2.09194,3.76259 -2.09194,8.08207 -2.09194,12.26595 l 0,6.9683 z m -1.2542,-38.05204 0,10.45487 0.27602,0 c 3.76743,-7.80605 9.34106,-11.8495 18.4013,-11.8495 9.47669,0 16.16901,4.18388 20.90489,12.26595 4.45995,7.52518 5.2977,16.02854 5.2977,24.66748 0,17.42317 -6.41142,36.65741 -27.04029,36.65741 -6.9683,0 -13.37971,-2.92484 -16.3094,-9.19582 l -0.27602,0 0,31.63578 -20.48844,0 0,-94.63617 19.23424,0"
       style="fill:#ffffff;fill-rule:nonzero;stroke:none" />
    <path
       id="path4397"
       d="m 445.68395,774.37144 11.09891,-0.85227 -0.01,16.43531 9.3411,-0.01 c 5.86901,0 11.38462,1.71423 11.96087,8.8956 0.43583,5.44292 -3.00716,9.08929 -6.04343,9.64618 -3.72865,0 -2.61004,0.0145 -7.57845,0.0145 1.64159,0 6.48405,-3.00716 5.39934,-7.1281 -1.00239,-3.79648 -4.36305,-3.86912 -7.50581,-4.06766 -3.15239,-0.19854 -16.49826,-0.88133 -16.49826,-0.88133 l -0.16464,-22.05256"
       style="fill:#ffffff;fill-rule:nonzero;stroke:none" />
    <path
       id="path4399"
       d="m 430.46415,794.3708 c -2.01931,2.43576 -4.02893,6.16445 -2.87647,10.33381 3.45267,11.64611 21.98965,16.78396 29.78596,17.09872 l -0.90554,-13.63152 c 0,0 -12.66303,1.6658 -19.06476,-5.04585 -2.71177,-2.84252 -2.16942,-5.83032 -0.1259,-8.41619 -2.39217,-0.11138 -5.20564,-0.27118 -6.81334,-0.33897"
       style="fill:#ffffff;fill-rule:nonzero;stroke:none" />
  </g>
</svg>
