<?xml version="1.0" encoding="UTF-8" standalone="no"?>
<!-- Created with Inkscape (http://www.inkscape.org/) -->
<svg
   xmlns:svg="http://www.w3.org/2000/svg"
   xmlns="http://www.w3.org/2000/svg"
   version="1.0"
   width="602.36218"
   height="602.36218"
   id="svg2407">
  <defs
     id="defs2409" />
  <g
     transform="translate(-17.716526,-21.59609)"
     id="layer1">
    <g
       transform="matrix(13.151062,0,0,-13.151062,-6253.6138,852.47131)"
       id="g12189">
      <path
         d="M 315.46875,21.59375 C 212.61428,21.593749 188.9375,81.513139 188.9375,173.28125 L 188.9375,208.0625 L 188.9375,264.3125 L 188.9375,580.78125 L 258.5,580.78125 L 258.5,264.3125 L 340.3125,264.3125 L 340.3125,208.0625 L 258.5,208.0625 L 258.5,167.375 C 258.49999,116.32257 265.91436,77.84375 325.84375,77.84375 C 330.57812,77.843746 335.53866,78.089062 340.3125,78.5625 L 340.3125,23 C 332.59283,22.158331 324.39832,21.59375 315.46875,21.59375 z M 398.15625,25.78125 L 398.15625,151.59375 L 584.65625,151.59375 L 584.65625,25.78125 L 398.15625,25.78125 z M 154.90625,202.09375 C 100.82908,204.94753 66.842341,240.30318 51.46875,288.84375 L 49.78125,288.84375 L 49.78125,208.125 L 17.71875,208.125 L 17.71875,580.78125 L 49.78125,580.78125 L 49.78125,373.21875 C 49.781252,302.97893 84.57437,235.1129 154.90625,230.8125 L 154.90625,202.09375 z M 398.15625,208.1875 L 398.15625,580.78125 L 584.65625,580.78125 L 584.65625,208.1875 L 398.15625,208.1875 z"
         transform="matrix(7.6039486e-2,0,0,-7.6039486e-2,476.86874,63.179325)"
         id="path12044"
         style="fill:#c70a0e;fill-opacity:1;fill-rule:nonzero;stroke:none" />
    </g>
  </g>
</svg>
