<svg xmlns="http://www.w3.org/2000/svg" xmlns:xlink="http://www.w3.org/1999/xlink" version="1.1" id="Calque_1" x="0" y="0" width="226.77" height="54.17" viewBox="0 0 226.77 54.17" enable-background="new 0 0 226.772 54.169" xml:space="preserve">
  <path fill="#FFFFFF" d="M13.57 54.17c-0.81 0-8.03-0.18-12.64-6.32l7.22-5.42c1.88 2.51 5.21 2.7 5.46 2.71 2.48-0.01 3.33-1.02 3.82-2.02 0.59-1.19 0.65-2.48 0.65-2.49v-0.36l0.03-0.18c0.06-0.79 0.19-5.96-6.38-8.88C-0.24 25.89-0.12 15.43 0.03 13.34 0.12 7.9 3.76 0 13.57 0c0.81 0 8.03 0.18 12.64 6.32l-7.22 5.42c-1.88-2.51-5.21-2.7-5.46-2.71 -2.48 0.01-3.33 1.03-3.82 2.02 -0.59 1.19-0.65 2.48-0.65 2.5v0.36l-0.03 0.18c-0.06 0.79-0.19 5.97 6.38 8.88 11.98 5.32 11.86 15.78 11.71 17.87C27.02 46.27 23.38 54.17 13.57 54.17"/>
  <path fill="#FFFFFF" d="M52.46 0v20.28c-3.16 0.89-6.22 2.13-9.1 3.7v-1.41V0h-8.99v54.17h8.99V34.68c2.78-2.09 5.85-3.74 9.1-4.92V31.6v22.57h9V0H52.46z"/>
  <path fill="#FFFFFF" d="M82.22 0C68.64 0 68.68 13.54 68.68 13.54v27.09c0 0-0.04 13.54 13.54 13.54s13.54-13.54 13.54-13.54V13.54C95.76 13.54 95.8 0 82.22 0M82.22 45.14c-4.51 0-4.51-4.51-4.51-4.51V13.54c0 0 0-4.51 4.51-4.51s4.51 4.51 4.51 4.51v27.09C86.73 40.63 86.73 45.14 82.22 45.14"/>
  <path fill="#FFFFFF" d="M112.05 9.03h13.54V0h-13.54 -9.07v54.17h9.07 13.54V45.14h-13.54V33.78c4.07-2.78 8.68-4.68 13.54-5.57 -0.54-2.96-1.08-5.92-1.62-8.88 -4.16 0.76-8.17 2.11-11.93 4V22.57 9.03z"/>
  <path fill="#FFFFFF" d="M144.59 54.17c-0.81 0-8.03-0.18-12.64-6.32l7.22-5.42c1.88 2.51 5.22 2.7 5.46 2.71 2.48-0.01 3.33-1.02 3.82-2.02 0.59-1.19 0.65-2.48 0.65-2.49v-0.36l0.03-0.18c0.06-0.79 0.19-5.96-6.38-8.88 -11.98-5.32-11.86-15.78-11.71-17.87C131.14 7.9 134.77 0 144.59 0c0.81 0 8.03 0.18 12.64 6.32l-7.22 5.42c-1.88-2.51-5.21-2.7-5.46-2.71 -2.48 0.01-3.32 1.03-3.82 2.02 -0.59 1.19-0.65 2.48-0.65 2.5v0.36l-0.03 0.18c-0.06 0.79-0.18 5.97 6.38 8.88 11.98 5.32 11.86 15.78 11.71 17.87C158.04 46.27 154.4 54.17 144.59 54.17"/>
  <path fill="#FFFFFF" d="M183.44 0v40.63c0 0 0 4.51-4.51 4.51 -4.51 0-4.51-4.51-4.51-4.51V0h-9.03v40.63c0 0-0.04 13.54 13.54 13.54s13.54-13.54 13.54-13.54V0H183.44z"/>
  <path fill="#FFFFFF" d="M213.23 0h-4.51 -9.03v54.17h9.03V40.63h4.51c5.44 0 9.68-2.49 11.94-7.01 1.53-3.06 1.6-5.98 1.6-6.53V13.54C226.77 3.61 218.67 0 213.23 0M217.74 27.05c-0.01 0.42-0.17 1.67-0.74 2.7 -0.5 0.92-1.35 1.85-3.77 1.85h-4.51V9.03h4.51c0.01 0 1.31 0.06 2.5 0.65 1 0.5 2.02 1.35 2.02 3.86V27.05z"/>
</svg>
