<svg id="Layer_1" data-name="Layer 1" xmlns="http://www.w3.org/2000/svg" viewBox="0 0 963.9 167.5">
  <title>TYPO</title>
  <g>
    <g>
      <path fill="#000" d="M88.1,70.8L135.4,1.2h21.9L94.9,91.6,87.7,80.9C87.7,81,84.1,76.8,88.1,70.8Z"/>
      <path fill="#000" d="M83.4,90.8L63,60.8l-1.8-2.6h0L22.7,1.2H0L69.1,101.7v65.8h19l-0.2-61.4A24.72,24.72,0,0,0,83.4,90.8Z"/>
    </g>
    <g>
      <path fill="#000" d="M331.1,28l-6.9-15.6L254,167.5h19.2l19.7-43.9h80.5l-5-11.6a8.69,8.69,0,0,0-8.3-5.3H300.3L331,38.3A12,12,0,0,0,331.1,28Z"/>
      <polygon fill="#000" points="347.4 0 328.6 0 347.8 43.1 347.8 43.1 403 167.5 423.2 167.5 347.4 0"/>
    </g>
    <g>
      <polygon fill="#000" points="836.6 27.7 817.8 27.7 817.8 167.5 836.6 167.5 836.6 27.7"/>
      <path fill="#000" d="M852.9,150.1h22.6c42,0,68.9-28.5,68.9-65.6s-26.8-66-68.9-66H826.2c-8.3,0-8.4-8.1-8.4-8.1V1.1h57.7c52.3,0,88.4,35.9,88.4,82.9s-36.1,83.4-88.4,83.4H845.8v-9.3C845.8,158.2,845.1,150.1,852.9,150.1Z"/>
    </g>
    <g>
      <polygon fill="#000" points="569.7 1.2 551 1.2 551 167.5 569.8 167.5 569.7 1.2"/>
      <path fill="#000" d="M586,18.5h35.1c26.8,0,42.5,12.4,42.5,33,0,21.6-17.8,34.4-42.8,34.4H585.5c-6.9,0-6.7,6.7-6.7,6.7v10.2h38.4l48.2,64.6h23L637.3,99.5c26.1-4.8,45.1-20.9,45.1-48.7,0-29.9-23.5-49.7-60.1-49.7H578.8V11.8A6.76,6.76,0,0,0,586,18.5Z"/>
    </g>
  </g>
</svg>
