<?xml version="1.0" encoding="UTF-8" standalone="no"?>
<svg
   xmlns:svg="http://www.w3.org/2000/svg"
   xmlns="http://www.w3.org/2000/svg"
   id="svg827"
   version="1.1"
   viewBox="0 0 151.60623 19.579167"
   height="74"
   width="573">
  <defs
     id="defs823">
    <rect
       id="rect888"
       height="43.089287"
       width="164.04167"
       y="100.54167"
       x="22.678572" />
  </defs>
  <g
     id="layer1">
    <text
       style="font-style:normal;font-variant:normal;font-weight:normal;font-stretch:normal;font-size:50.79999999999999716px;line-height:1.25;font-family:FuturaTS-Heavy;-inkscape-font-specification:FuturaTS-Heavy;white-space:pre;shape-inside:url(#rect888);fill:#000000;fill-opacity:1;stroke:none;"
       id="text886"
       xml:space="preserve"><tspan
         style="visibility:hidden"
         x="22.677734"
         y="188.86131"><tspan
           dx="0 16.718359 16.767969 7.8382797 9.4257812 7.7886734 23.663673 16.470314 10.864449"
           style="font-size:25.4px">Baltimore</tspan></tspan></text>
    <g
       style="font-style:normal;font-variant:normal;font-weight:normal;font-stretch:normal;font-size:25.4px;line-height:1.25;font-family:FuturaTS-Heavy;-inkscape-font-specification:FuturaTS-Heavy;fill:#000000;fill-opacity:1;stroke:none;stroke-width:0.264583"
       id="text898"
       aria-label="BALTIMORE.">
      <path
         fill="#fff"
         id="path1177"
         d="M 0.19324171,18.830893 H 9.9214416 c 3.6322004,0 6.1213994,-2.0828 6.1213994,-5.08 0,-2.0828 -1.2954,-3.7592003 -3.378199,-4.3942003 1.6256,-0.6096 2.565399,-2.0066 2.565399,-3.8353999 0,-2.921 -2.489199,-5.00379996 -5.9689994,-5.00379996 H 0.19324171 Z m 6.29919989,-7.4422 h 1.397 c 1.27,0 1.9304,0.5588 1.9304,1.5494 0,0.8636 -0.6604,1.4986 -1.651,1.4986 h -1.6764 z m 0.0254,-6.5024002 h 1.2446 c 0.8382,0 1.4224,0.508 1.4224,1.2954 0,0.8381999 -0.6096,1.3715999 -1.6002,1.3715999 h -1.0668 z" />
      <path
         fill="#fff"
         id="path1179"
         d="m 15.633266,18.830893 h 6.9088 l 0.6858,-2.3368 h 5.0038 l 0.6858,2.3368 h 6.9088 l -6.3246,-18.31340016 h -7.5438 z m 9.4742,-9.6774003 0.127,-0.4572 c 0.2794,-1.016 0.3302,-1.6764 0.4826,-3.3019999 0.1524,1.6509999 0.2794,2.3367999 0.508,3.3019999 l 0.8636,3.4798003 h -2.7686 z" />
      <path
         fill="#fff"
         id="path1181"
         d="m 35.812771,18.830893 h 12.1158 v -6.0198 h -5.5118 V 0.51749284 h -6.604 z" />
      <path
         fill="#fff"
         id="path1183"
         d="m 45.733854,6.4102927 h 3.6576 V 18.830893 h 6.5278 V 6.3086928 h 3.7084 V 0.51749284 h -13.8938 z" />
      <path
         fill="#fff"
         id="path1185"
         d="m 60.170975,18.830893 h 6.5532 V 0.51749284 h -6.5532 z" />
      <path
         fill="#fff"
         id="path1187"
         d="m 67.467518,18.830893 h 6.1468 l 0.8128,-7.2644 c 0.1524,-1.3462 0.2032,-1.9558003 0.2794,-3.4544003 0.0762,1.2954 0.2032,1.8542 0.4064,2.5400003 l 2.5146,8.1788 h 4.0132 l 2.4892,-8.1788 c 0.2286,-0.635 0.3048,-1.1938003 0.381,-2.5400003 0.0762,1.27 0.254,1.6256 0.254,2.9210003 l 0.8382,7.7978 h 6.1722 l -2.9972,-18.31340016 h -6.5532 l -1.905,6.57859986 c -0.4318,1.4224 -0.5588,2.2098 -0.6858,3.9116003 -0.1778,-1.7272003 -0.2794,-2.5400003 -0.6858,-3.9116003 l -1.9304,-6.57859986 h -6.5532 z" />
      <path
         fill="#fff"
         id="path1189"
         d="m 92.160686,9.7122927 c 0,5.6896003 4.013199,9.5250003 9.956804,9.5250003 5.9182,0 9.9314,-3.8354 9.9314,-9.5250003 0,-5.6895999 -4.0132,-9.52499986 -9.9314,-9.52499986 -5.943605,0 -9.956804,3.83539996 -9.956804,9.52499986 z m 9.956804,-3.6575999 c 1.8542,0 3.2258,1.5493999 3.2258,3.6321999 0,2.1336003 -1.3462,3.6830003 -3.2258,3.6830003 -1.905,0 -3.276605,-1.5494 -3.276605,-3.6576003 0,-2.1082 1.371605,-3.6575999 3.276605,-3.6575999 z" />
      <path
         fill="#fff"
         id="path1191"
         d="m 113.30262,18.830893 h 6.5786 v -4.2672 c 0,-0.6858 -0.1524,-1.524 -0.3048,-2.5908 0.4064,0.9144 0.5588,1.3208 0.8128,1.8288 l 2.4638,5.0292 h 7.5692 l -4.7498,-7.1628 c 2.2098,-0.7366 3.3274,-2.3622003 3.3274,-4.9022003 0,-3.6067999 -2.9718,-6.24839986 -7.0612,-6.24839986 h -8.636 z m 6.604,-13.3604002 h 0.8636 c 1.0922,0 1.8034,0.635 1.8034,1.6001999 0,1.016 -0.6858,1.6256 -1.8034,1.6256 h -0.8636 z" />
      <path
         fill="#fff"
         id="path1193"
         d="m 130.41785,18.830893 h 12.3444 v -5.1308 h -5.7658 v -1.7018 h 5.1054 V 7.1976927 h -5.1054 V 5.4704928 h 5.6134 V 0.51749284 h -12.192 z" />
      <path
         fill="#fff"
         id="path1195"
         d="m 144.59533,16.670129 q 0,-1.080381 0.791,-1.871375 0.79099,-0.790994 1.89066,-0.790994 1.09968,0 1.89067,0.790994 0.791,0.790994 0.791,1.890668 0,1.118966 -0.791,1.90996 -0.7717,0.771701 -1.89067,0.771701 -1.13825,0 -1.90996,-0.771701 -0.7717,-0.771701 -0.7717,-1.929253 z" />
    </g>
  </g>
</svg>
