<?xml version="1.0" encoding="UTF-8"?>
<svg id="uuid-85dc9022-de69-4d65-b93c-88d7189be464" data-name="Layer 1" xmlns="http://www.w3.org/2000/svg" viewBox="0 0 2513.5 2151.81">
  <path d="M2458.62,2055.83v-43.47h-214.37V853.12l-518.05-129.43v1288.64h-59.54V0h-819.85v2012.36h-59.51V723.72l-518.02,129.4v1159.24H54.88v43.47H0v95.98h2513.5v-95.98h-54.88ZM2062.17,930.7h111.5v111.43h-111.5v-111.43ZM2062.17,1110.42h111.5v111.34h-111.5v-111.34ZM2062.17,1290.06h111.5v111.39h-111.5v-111.39ZM2062.17,1469.75h111.5v111.37h-111.5v-111.37ZM2062.17,1649.38h111.5v111.43h-111.5v-111.43ZM2062.17,1829.1h111.5v111.35h-111.5v-111.35ZM1929.06,930.7h111.5v111.43h-111.5v-111.43ZM1929.06,1110.42h111.5v111.34h-111.5v-111.34ZM1929.06,1290.06h111.5v111.39h-111.5v-111.39ZM1929.06,1469.75h111.5v111.37h-111.5v-111.37ZM1929.06,1649.38h111.5v111.43h-111.5v-111.43ZM1929.06,1829.1h111.5v111.35h-111.5v-111.35ZM1796.59,930.7h111.42v111.43h-111.42v-111.43ZM1796.59,1110.42h111.42v111.34h-111.42v-111.34ZM1796.59,1290.06h111.42v111.39h-111.42v-111.39ZM1796.59,1469.75h111.42v111.37h-111.42v-111.37ZM1796.59,1649.38h111.42v111.43h-111.42v-111.43ZM1796.59,1829.1h111.42v111.35h-111.42v-111.35ZM1456.28,109h140.3v140.18h-140.3V109ZM1456.28,288.66h140.3v140.18h-140.3v-140.18ZM1456.28,468.32h140.3v140.21h-140.3v-140.21ZM1456.28,647.99h140.3v140.21h-140.3v-140.21ZM1456.28,827.68h140.3v140.21h-140.3v-140.21ZM1456.28,1007.34h140.3v140.21h-140.3v-140.21ZM1456.28,1187.03h140.3v140.19h-140.3v-140.19ZM1456.28,1366.73h140.3v140.18h-140.3v-140.18ZM1456.28,1546.36h140.3v140.21h-140.3v-140.21ZM1456.28,1726.08h140.3v140.15h-140.3v-140.15ZM1276.52,109h140.3v140.18h-140.3V109ZM1276.52,288.66h140.3v140.18h-140.3v-140.18ZM1276.52,468.32h140.3v140.21h-140.3v-140.21ZM1276.52,647.99h140.3v140.21h-140.3v-140.21ZM1276.52,827.68h140.3v140.21h-140.3v-140.21ZM1276.52,1007.34h140.3v140.21h-140.3v-140.21ZM1276.52,1187.03h140.3v140.19h-140.3v-140.19ZM1276.52,1366.73h140.3v140.18h-140.3v-140.18ZM1276.52,1546.36h140.3v140.21h-140.3v-140.21ZM1276.52,1726.08h140.3v140.15h-140.3v-140.15ZM1096.68,109h140.3v140.18h-140.3V109ZM1096.68,288.66h140.3v140.18h-140.3v-140.18ZM1096.68,468.32h140.3v140.21h-140.3v-140.21ZM1096.68,647.99h140.3v140.21h-140.3v-140.21ZM1096.68,827.68h140.3v140.21h-140.3v-140.21ZM1096.68,1007.34h140.3v140.21h-140.3v-140.21ZM1096.68,1187.03h140.3v140.19h-140.3v-140.19ZM1096.68,1366.73h140.3v140.18h-140.3v-140.18ZM1096.68,1546.36h140.3v140.21h-140.3v-140.21ZM1096.68,1726.08h140.3v140.15h-140.3v-140.15ZM916.92,109h140.31v140.18h-140.31V109ZM916.92,288.66h140.31v140.18h-140.31v-140.18ZM916.92,468.32h140.31v140.21h-140.31v-140.21ZM916.92,647.99h140.31v140.21h-140.31v-140.21ZM916.92,827.68h140.31v140.21h-140.31v-140.21ZM916.92,1007.34h140.31v140.21h-140.31v-140.21ZM916.92,1187.03h140.31v140.19h-140.31v-140.19ZM916.92,1366.73h140.31v140.18h-140.31v-140.18ZM916.92,1546.36h140.31v140.21h-140.31v-140.21ZM916.92,1726.08h140.31v140.15h-140.31v-140.15ZM605.47,930.7h111.47v111.43h-111.47v-111.43ZM605.47,1110.42h111.47v111.34h-111.47v-111.34ZM605.47,1290.06h111.47v111.39h-111.47v-111.39ZM605.47,1469.75h111.47v111.37h-111.47v-111.37ZM605.47,1649.38h111.47v111.43h-111.47v-111.43ZM605.47,1829.1h111.47v111.35h-111.47v-111.35ZM472.44,930.7h111.44v111.43h-111.44v-111.43ZM472.44,1110.42h111.44v111.34h-111.44v-111.34ZM472.44,1290.06h111.44v111.39h-111.44v-111.39ZM472.44,1469.75h111.44v111.37h-111.44v-111.37ZM472.44,1649.38h111.44v111.43h-111.44v-111.43ZM472.44,1829.1h111.44v111.35h-111.44v-111.35ZM339.91,930.7h111.45v111.43h-111.45v-111.43ZM339.91,1110.42h111.45v111.34h-111.45v-111.34ZM339.91,1290.06h111.45v111.39h-111.45v-111.39ZM339.91,1469.75h111.45v111.37h-111.45v-111.37ZM339.91,1649.38h111.45v111.43h-111.45v-111.43ZM339.91,1829.1h111.45v111.35h-111.45v-111.35Z"/>
</svg>