<?xml version="1.0" encoding="UTF-8" standalone="no"?>
<svg
   xmlns:svg="http://www.w3.org/2000/svg"
   xmlns="http://www.w3.org/2000/svg"
   id="svg6"
   version="1.1"
   viewBox="0 0 175.05548 64.321251"
   height="64.321251mm"
   width="175.05548mm">
  <defs
     id="defs2" />
  <g
     transform="translate(-21.848803,-103.39664)"
     id="layer5">
    <path
       style="fill:#fff;stroke:none;stroke-width:0.665;stroke-miterlimit:4;stroke-dasharray:none;stroke-opacity:1"
       d="m 112.93317,166.94343 c 2.98557,-0.72236 5.84331,-2.30455 8.53729,-4.72667 l 1.38459,-1.24486 v 2.53807 2.53806 h 6.08542 6.08541 l -0.005,-17.66095 c -0.005,-19.06451 -0.0444,-19.69069 -1.42927,-22.71572 -2.02685,-4.42725 -7.97783,-7.28417 -16.02863,-7.69495 -5.31784,-0.27133 -10.12125,0.55867 -14.30753,2.47227 l -2.07424,0.94816 -1.13568,-0.66531 c -2.0302,-1.18936 -4.37276,-1.81251 -7.40705,-1.97036 -4.29578,-0.22349 -7.40987,0.57953 -9.838436,2.53698 -0.56571,0.45597 -1.13126,0.82904 -1.25677,0.82904 -0.12551,0 -0.2282,-0.65485 -0.2282,-1.45521 v -1.45521 h -6.08542 -6.08542 v 23.41562 23.41564 h 6.07366 6.07367 l 0.0779,-15.67657 0.0779,-15.67657 0.69564,-1.4835 c 1.213,-2.58682 3.126196,-3.54785 6.690576,-3.36077 2.6337,0.13824 4.36645,0.87968 5.19722,2.2239 0.6562,1.06175 1.29952,3.30078 1.30404,4.5386 0.002,0.47295 0.0424,0.8599 0.0903,0.8599 0.0479,0 1.03019,-0.53806 2.18282,-1.19568 2.47103,-1.40984 5.48616,-2.61281 8.50443,-3.39309 1.99106,-0.51472 2.18939,-0.62605 2.34044,-1.31375 0.24753,-1.12699 1.52821,-2.42114 3.08899,-3.12147 1.19986,-0.53838 1.80906,-0.62444 4.43369,-0.62633 2.63533,-0.002 3.18991,0.0762 4.14218,0.58335 1.90943,1.0169 2.92575,2.88747 2.65708,4.89049 -0.34194,2.5494 -2.8451,3.69806 -9.97426,4.57702 -8.36326,1.03112 -12.31601,2.43281 -15.31355,5.43034 -2.60196,2.60197 -3.75601,5.71672 -3.77044,10.17641 -0.0145,4.47705 0.98262,7.20096 3.59585,9.82307 3.72278,3.73544 9.58249,5.10095 15.62043,3.64005 z m -3.37229,-8.70954 c -2.56826,-0.82489 -3.85251,-3.07894 -3.56442,-6.25606 0.10859,-1.19756 0.34308,-1.8984 0.89606,-2.67815 1.24555,-1.75631 2.93897,-2.49858 8.04596,-3.52677 3.93583,-0.7924 5.30114,-1.17279 7.45355,-2.07665 0.42191,-0.17718 0.46284,0.0254 0.46102,2.28126 -0.003,3.47431 -0.39733,5.64051 -1.39056,7.63508 -0.70785,1.42148 -1.13176,1.90428 -2.4439,2.78335 -2.83782,1.90122 -6.83947,2.67887 -9.45771,1.83794 z m -57.878746,8.26369 c 3.95805,-1.33888 6.65683,-3.46209 9.10607,-7.16399 3.17093,-4.79273 4.65389,-10.32631 4.65121,-17.35571 -0.003,-6.62247 -1.73838,-12.38773 -5.04279,-16.74858 -3.49576,-4.61339 -8.18812,-6.82966 -14.53532,-6.86527 -4.46099,-0.025 -6.915475,0.71374 -9.984626,3.0052 l -1.38567,1.03456 -0.06954,-9.33257 -0.06954,-9.33258 -6.151562,-0.071 -6.151563,-0.071 v 31.22572 31.22571 h 6.217708 6.217709 v -1.19063 c 0,-0.65485 0.07037,-1.19062 0.156379,-1.19062 0.08601,0 0.642107,0.41576 1.235776,0.92392 2.201426,1.88433 5.854799,2.81424 10.514089,2.67616 2.66415,-0.079 3.69318,-0.22854 5.29167,-0.76928 z m -9.46612,-9.44646 c -1.66423,-0.35058 -3.703546,-1.55544 -4.687399,-2.76941 -2.21611,-2.73444 -3.046256,-5.8009 -3.039798,-11.22862 0.0088,-7.41218 1.621396,-11.26975 5.509181,-13.17896 1.325766,-0.65106 1.786206,-0.73429 4.011226,-0.72506 2.1058,0.009 2.72594,0.11404 3.82285,0.64915 3.65933,1.78512 5.3622,5.51298 5.62692,12.31824 0.2215,5.69434 -0.81664,9.73435 -3.2049,12.4722 -1.7954,2.05821 -5.1209,3.07697 -8.03808,2.46246 z m 111.066116,-4.62914 v -13.62604 h -6.35 -6.35 v 13.62604 13.62605 h 6.35 6.35 z m 17.78569,-1.91823 c 0.0968,-16.8275 0.0745,-16.56323 1.56475,-18.5789 2.01803,-2.72952 7.7623,-2.88139 10.12365,-0.26765 1.73567,1.92117 1.74674,2.04224 1.74674,19.09301 v 15.29782 h 6.10067 6.10066 l -0.0989,-17.79324 c -0.10787,-19.40304 -0.061,-18.78706 -1.68256,-22.1242 -0.99473,-2.04718 -3.74813,-4.74948 -5.92193,-5.81202 -5.36778,-2.62374 -13.68379,-1.97426 -16.83492,1.31481 -0.39962,0.41711 -0.82337,0.75839 -0.94166,0.75839 -0.1183,0 -0.21509,-0.71661 -0.21509,-1.59247 v -1.59247 l -6.01927,0.0711 -6.01927,0.0711 -0.0676,23.34948 -0.0676,23.34948 h 6.07146 6.07147 z m -17.84696,-24.73854 -0.071,-6.15157 -6.28385,-0.0709 -6.28386,-0.0709 v 6.2225 6.2225 h 6.35488 6.35487 z"
       id="path177-6" />
  </g>
</svg>
