<svg xmlns="http://www.w3.org/2000/svg" viewBox="0 0 689.31 46.84">
   <path fill="#fff" d="M21,0.55c10.31,0,17.62,6.29,18.36,15.81H31.44c-0.68-5.44-4.59-8.61-10.54-8.61C13.14,7.75,8.1,14,8.1,23.67s5,15.69,12.86,15.69c6.63,0,10.26-3.62,10.65-10.54l7.76,0.11a16.8,16.8,0,0,1-5,13c-3.17,3.12-7.65,4.76-13.49,4.87C8.5,46.78,0,37.38,0,23.67S8.61,0.49,21,.55"></path>
   <path fill="#fff" d="M75.81,39.36c8.44,0,13.65-6,13.65-15.69s-5.27-16-13.65-16-13.54,6.12-13.54,16c0,9.69,5.21,15.69,13.54,15.69m0-38.87c13,0,21.87,9.46,21.87,23.17s-9,23.17-21.87,23.17S54.16,37.38,54.16,23.67,62.89,0.49,75.81.49"></path>
   <polygon fill="#fff" points="113.88 1.4 113.88 45.93 143.68 45.93 143.68 38.28 121.87 38.28 121.87 1.4 113.88 1.4"></polygon>
   <path fill="#fff" d="M176.71,39.36c8.44,0,13.65-6,13.65-15.69s-5.27-16-13.65-16-13.54,6.12-13.54,16c0,9.69,5.21,15.69,13.54,15.69m0-38.87c13,0,21.87,9.46,21.87,23.17s-9,23.17-21.87,23.17-21.64-9.46-21.64-23.17S163.8,0.49,176.71.49"></path>
   <path fill="#fff" d="M233.65,21.34c5,0,7.53-2.15,7.53-6.29,0-4.53-2.15-6.46-7.25-6.46H222.78V21.34h10.88ZM214.79,1.4h20.74c8.21,0,13.82,5.21,13.82,12.8a13.73,13.73,0,0,1-7.76,12.64l9.69,19.09h-8.61L233.83,28.2h-11V45.93h-8V1.4Z"></path>
   <path fill="#fff" d="M271.94,30.07c0.28,6.4,4.14,9.69,11.5,9.69,5.55,0,8.67-2.32,8.67-6.4,0-4.64-4-5.78-11.39-7.42-7.59-1.59-14.79-4-14.79-12.86,0-7.59,6.18-12.46,15.64-12.46,10.37,0,16.77,5.44,17.28,14.79h-7.76c-0.4-5.21-3.74-8-9.46-8-5.1,0-8,2-8,5.44,0,3.8,3.57,4.87,9.92,6.18,8.16,1.64,16.6,3.91,16.6,14.16,0,8.27-6.69,13.65-16.88,13.65-11.5,0-19.09-6.63-19.26-16.71h7.93Z"></path>
   <path fill="#fff" d="M373.22,30.07c0.28,6.4,4.14,9.69,11.5,9.69,5.55,0,8.67-2.32,8.67-6.4,0-4.64-4-5.78-11.39-7.42-7.59-1.59-14.79-4-14.79-12.86,0-7.59,6.18-12.46,15.64-12.46,10.37,0,16.77,5.44,17.28,14.79h-7.76c-0.4-5.21-3.74-8-9.46-8-5.1,0-8,2-8,5.44,0,3.8,3.57,4.87,9.92,6.18,8.16,1.64,16.6,3.91,16.6,14.16,0,8.27-6.69,13.65-16.88,13.65-11.5,0-19.09-6.63-19.26-16.71h7.93Z"></path>
   <polygon fill="#fff" points="412.88 1.4 412.88 8.71 427.55 8.71 427.55 45.93 435.6 45.93 435.6 8.71 450.33 8.71 450.33 1.4 412.88 1.4"></polygon>
   <path fill="#fff" d="M464.89,1.4h8V30.52c0,6,3.06,8.73,9.92,8.73s9.86-2.78,9.86-8.73V1.4h8V31c0,9.86-6.57,15.52-18,15.52S464.89,41.06,464.89,31V1.4Z"></path>
   <path fill="#fff" d="M534.92,38.51c8.27,0,12.41-4.87,12.41-14.67,0-10.2-4-15.18-12.07-15.18h-9.4V38.51h9.06ZM517.81,1.4h17.73c12.52,0,20,8.38,20,22.44,0,13.82-7.65,22.1-20.4,22.1H517.81V1.4Z"></path>
   <rect fill="#fff" x="571.86" y="1.4" width="7.99" height="44.53"></rect>
   <path fill="#fff" d="M617.86,39.36c8.44,0,13.65-6,13.65-15.69s-5.27-16-13.65-16-13.54,6.12-13.54,16c0,9.69,5.21,15.69,13.54,15.69m0-38.87c13,0,21.87,9.46,21.87,23.17s-9,23.17-21.87,23.17-21.64-9.46-21.64-23.17S604.95,0.49,617.86.49"></path>
   <path fill="#fff" d="M661.09,30.07c0.28,6.4,4.14,9.69,11.5,9.69,5.55,0,8.67-2.32,8.67-6.4,0-4.64-4-5.78-11.39-7.42-7.59-1.59-14.79-4-14.79-12.86,0-7.59,6.18-12.46,15.64-12.46C681.09,0.61,687.49,6,688,15.39h-7.76c-0.4-5.21-3.74-8-9.46-8-5.1,0-8,2-8,5.44,0,3.8,3.57,4.87,9.92,6.18,8.16,1.64,16.6,3.91,16.6,14.16,0,8.27-6.69,13.65-16.88,13.65-11.5,0-19.09-6.63-19.26-16.71h7.93Z"></path>
   <polygon fill="#fff" points="333.51 9.04 325.8 7.01 324.83 10.74 332.54 12.76 330.44 20.78 334.31 21.8 336.42 13.77 344.13 15.8 345.1 12.08 337.39 10.05 339.48 2.07 335.61 1.05 333.51 9.04"></polygon>
   <path fill="#fff" d="M336.23,2.11l2.2,0.58-2.09,8,7.71,2-0.54,2-7.71-2-2.1,8-2.2-.58,2.1-8-7.71-2,0.54-2.05,7.71,2ZM335,0L332.9,8l-7.71-2-1.41,5.39,7.71,2-2.11,8,5.55,1.45,2.1-8,7.71,2,1.42-5.39-7.71-2,2.09-8Z"></path>
</svg>