<?xml version="1.0" encoding="UTF-8"?>
<svg xmlns="http://www.w3.org/2000/svg" xmlns:xlink="http://www.w3.org/1999/xlink" version="1.1" viewBox="0 0 150 10.5" width="150" height="10.5">
  <defs>
    <style>
      .cls-1 {
        fill: none;
      }

      .cls-2 {
        clip-path: url(#clippath);
      }
    </style>
    <clipPath id="clippath">
      <rect class="cls-1" x="-.2" y="0" width="150" height="10.5"/>
    </clipPath>
  </defs>
  <g>
    <g id="Calque_1">
      <g class="cls-2">
        <g>
          <path d="M4.4.1c2.2,0,3.8,1.4,4,3.6h-1.7c-.1-1.2-1-1.9-2.3-1.9s-2.8,1.4-2.8,3.6,1.1,3.5,2.8,3.5,2.2-.8,2.3-2.4h1.7c0,.6,0,1.1-.2,1.6-.2.5-.5,1-.9,1.3-.7.7-1.7,1.1-2.9,1.1-2.7,0-4.5-2.1-4.5-5.2S1.7.1,4.4.1h0ZM16.3,8.8c1.8,0,3-1.3,3-3.5s-1.1-3.6-3-3.6-2.9,1.4-2.9,3.6,1.1,3.5,2.9,3.5h0ZM16.3.1c2.8,0,4.8,2.1,4.8,5.2s-2,5.2-4.8,5.2-4.7-2.1-4.7-5.2S13.5.1,16.3.1ZM24.6.3v10h6.5v-1.7h-4.7V.3h-1.7,0ZM38.3,8.8c1.8,0,3-1.3,3-3.5s-1.1-3.6-3-3.6-2.9,1.4-2.9,3.6,1.1,3.5,2.9,3.5h0ZM38.3.1c2.8,0,4.8,2.1,4.8,5.2s-2,5.2-4.8,5.2-4.7-2.1-4.7-5.2S35.5.1,38.3.1h0ZM50.7,4.8c1.1,0,1.6-.5,1.6-1.4s-.5-1.5-1.6-1.5h-2.4v2.9h2.4,0ZM46.6.3h4.5c1.8,0,3,1.2,3,2.9,0,.6-.1,1.2-.4,1.7-.3.5-.7.9-1.2,1.2l2.1,4.3h-1.9l-1.9-4h-2.4v4h-1.7V.3h0ZM59,6.8c0,1.4.9,2.2,2.5,2.2s1.9-.5,1.9-1.4-.9-1.3-2.5-1.7c-1.7-.4-3.2-.9-3.2-2.9s1.3-2.8,3.4-2.8,3.6,1.2,3.8,3.3h-1.7c0-1.2-.8-1.8-2.1-1.8s-1.7.4-1.7,1.2.8,1.1,2.2,1.4c1.8.4,3.6.9,3.6,3.2s-1.5,3.1-3.7,3.1-4.2-1.5-4.2-3.8h1.7s0,0,0,0ZM81.1,6.8c0,1.4.9,2.2,2.5,2.2s1.9-.5,1.9-1.4-.9-1.3-2.5-1.7c-1.7-.4-3.2-.9-3.2-2.9s1.3-2.8,3.4-2.8,3.6,1.2,3.8,3.3h-1.7c0-1.2-.8-1.8-2.1-1.8s-1.7.4-1.7,1.2.8,1.1,2.2,1.4c1.8.4,3.6.9,3.6,3.2s-1.5,3.1-3.7,3.1-4.2-1.5-4.2-3.8h1.7s0,0,0,0ZM89.7.3v1.6h3.2v8.4h1.8V2h3.2V.3h-8.1ZM101,.3h1.7v6.6c0,1.4.7,2,2.2,2s2.1-.6,2.1-2V.3h1.7v6.7c0,2.2-1.4,3.5-3.9,3.5s-3.9-1.2-3.9-3.5V.3h0ZM116.2,8.7c1.8,0,2.7-1.1,2.7-3.3s-.9-3.4-2.6-3.4h-2v6.7s2,0,2,0ZM112.5.3h3.9c2.7,0,4.4,1.9,4.4,5s-1.7,5-4.4,5h-3.8V.3ZM126,.3h-1.7v10h1.7V.3h0ZM134.3,8.8c1.8,0,3-1.3,3-3.5s-1.1-3.6-3-3.6-2.9,1.4-2.9,3.6,1.1,3.5,2.9,3.5h0ZM134.3.1c2.8,0,4.8,2.1,4.8,5.2s-2,5.2-4.8,5.2-4.7-2.1-4.7-5.2,1.9-5.2,4.7-5.2ZM143.7,6.8c0,1.4.9,2.2,2.5,2.2s1.9-.5,1.9-1.4-.9-1.3-2.5-1.7c-1.7-.4-3.2-.9-3.2-2.9s1.3-2.8,3.4-2.8c2.3,0,3.6,1.2,3.8,3.3h-1.7c0-1.2-.8-1.8-2.1-1.8s-1.7.5-1.7,1.2.8,1.1,2.2,1.4c1.8.4,3.6.9,3.6,3.2s-1.5,3.1-3.7,3.1-4.2-1.5-4.2-3.8h1.7ZM72.4,2l-1.7-.5-.2.8,1.7.5-.5,1.8.8.2.5-1.8,1.7.5.2-.8-1.7-.5.5-1.8-.8-.2s-.5,1.8-.5,1.8Z"/>
          <path d="M73,.5h.5c0,.1-.5,1.9-.5,1.9l1.7.4v.4c-.1,0-1.8-.4-1.8-.4l-.5,1.8h-.5c0-.1.5-1.9.5-1.9l-1.7-.5v-.5c.1,0,1.8.4,1.8.4l.5-1.8h0ZM72.7,0l-.5,1.8-1.7-.4-.3,1.2,1.7.5-.5,1.8,1.2.3.5-1.8,1.7.4.3-1.2-1.7-.5.5-1.8s-1.2-.3-1.2-.3Z"/>
        </g>
      </g>
    </g>
  </g>
</svg>