<?xml version="1.0" encoding="UTF-8" standalone="no"?>
<svg
   xmlns:svg="http://www.w3.org/2000/svg"
   xmlns="http://www.w3.org/2000/svg"
   xmlns:xlink="http://www.w3.org/1999/xlink"
   viewBox="0 0 500 254"
   height="254"
   width="500"
   id="svg867"
   version="1.1">
    <g>
      <path
         id="path879"
         d="m 312.17629,168.93 c -11.93473,-2.34866 -24.23111,-12.05293 -29.68843,-23.43 -2.43346,-5.07313 -2.94057,-7.54479 -3.28271,-16 -0.33742,-8.33839 -0.0446,-11.06627 1.76201,-16.41708 5.22036,-15.461302 17.11712,-25.388927 33.86674,-28.26117 29.32481,-5.028645 55.14904,19.9262 50.38321,48.68703 -4.14428,25.00998 -27.31526,40.4838 -53.04082,35.42122 z m 21.58449,-22.15299 c 2.17591,-1.43995 5.02175,-4.76978 6.73876,-7.8848 7.97872,-14.47516 -0.38309,-33.21373 -15.46794,-34.6632 -7.46217,-0.71702 -11.69807,0.47609 -16.25148,4.5775 -7.6574,6.89727 -10.18963,18.19807 -6.26509,27.95984 2.19388,5.45697 9.51844,11.98674 14.34847,12.79152 2.00008,0.33326 4.07489,0.71519 4.61069,0.84875 2.33157,0.58119 8.82011,-1.3356 12.28659,-3.62961 z M 0,127 V 86 H 10.5 21 V 117.5 149 H 33.5 46 v 9.5 9.5 H 23 0 Z m 49,0 V 86 h 24 24 v 9.5 9.5 H 84 71 v 6 6 H 83.5 96 v 9.5 9.5 H 83.5 71 v 6.5 6.5 h 13 13 v 9.5 9.5 H 73 49 Z m 86,0.0146 V 85.86015 l 21.75,0.346418 c 19.89404,0.316858 22.24164,0.542652 27.51154,2.646088 16.04468,6.404095 25.02466,25.255684 21.98029,46.143054 -2.15435,14.78099 -9.86681,25.33316 -22.0402,30.15533 -5.16652,2.04658 -7.74291,2.29419 -27.45163,2.63828 L 135,168.16905 Z m 41.38146,19.05865 c 9.90883,-6.12399 11.50962,-25.65366 2.88522,-35.19983 -3.9441,-4.36566 -8.1496,-5.85974 -16.51668,-5.86785 L 157,105 v 22.12849 22.12848 l 7.85037,-0.45445 c 5.85605,-0.339 8.78543,-1.03235 11.53109,-2.72926 z M 214,126.91406 V 85.828127 l 21.25,0.344792 c 19.63283,0.318552 21.63051,0.519427 26.25,2.639551 10.39327,4.77001 14.89035,12.52174 14.90234,25.68753 0.009,9.6313 -2.00523,14.22 -8.90803,20.2961 l -4.58931,4.03966 8.0475,14.20329 C 275.37863,160.85086 279,167.41282 279,167.62117 279,167.82953 273.86949,168 267.59887,168 H 256.19773 L 246.1128,149.25 236.02787,130.5 236.01397,149.25 236,168 h -11 -11 z m 32.8608,0.46378 c 6.89282,-1.37856 10.76235,-9.15505 7.73254,-15.53989 -2.1638,-4.55988 -4.83993,-6.70491 -12.28935,-6.92528 L 236,104.72618 V 116.36309 128 h 3.875 c 2.13125,0 5.27486,-0.27997 6.9858,-0.62216 z M 373,126.96379 V 85.927576 l 9.60042,0.286212 L 392.20084,86.5 406.85042,109.70226 421.5,132.90453 421.7681,109.45226 422.0362,86 H 432.5181 443 v 41 41 h -9.87175 -9.87174 l -14.37826,-22.68033 c -7.90804,-12.47419 -14.737,-23.16169 -15.17548,-23.75 -0.43847,-0.58832 -0.49174,9.61783 -0.11836,22.68033 L 394.26327,168 H 383.63164 373 Z m 80,0.0362 v -41 h 23.5 23.5 v 9.5 9.5 H 487.5 475 v 6 6 h 12.5 12.5 v 9.5 9.5 H 487.5 475 v 6.5 6.5 h 12.5 12.5 v 9.5 9.5 H 476.5 453 Z"
         fill="#fff"/>
    </g>
</svg>
