<svg width="161" height="40" fill="none" xmlns="http://www.w3.org/2000/svg"><path fill-rule="evenodd" clip-rule="evenodd" d="M101.939 10.767c.125-1.504-1.119-2.758-2.611-2.758-1.492-.126-2.736 1.128-2.736 2.633 0 1.505 1.12 2.758 2.612 2.758 1.492.126 2.735-1.128 2.735-2.633Zm-89.37 1.364a5.459 5.459 0 0 0-1.274-.163c-1.044 0-1.86.294-2.383.912-.359.456-.587 1.042-.587 2.508v.489h4.896v3.582H8.325v12.214H4.08V19.459H0v-3.582h4.08v-.652c0-2.54.588-4.07 1.698-5.146 1.11-1.074 2.775-1.856 4.93-1.856.849 0 1.632.065 2.513.293l-.652 3.615Zm20.913 7.37c1.614 0 3.001.777 3.873 1.942v4.696c-.807 1.166-2.195 1.943-3.776 1.943-2.356 0-4.13-1.814-4.13-4.275 0-2.266 1.58-4.307 4.033-4.307Zm4.034 12.143h4.034V15.938h-4.034v1.263c-1.226-1.003-2.807-1.587-4.582-1.587-4.26 0-7.68 3.563-7.68 8.193 0 2.138.774 4.08 2 5.505 1.388 1.62 3.582 2.656 5.906 2.656 1.58 0 3.065-.486 4.356-1.587v1.263Zm52.948-9.877c-.13-1.392-1.394-2.752-3.11-2.752-1.75 0-3.176 1.327-3.37 2.752h6.48Zm3.92 7.384c-1.523 1.813-4.018 2.817-6.448 2.817-4.698 0-8.23-3.239-8.23-8.16 0-4.372 2.982-8.194 7.647-8.194 4.342 0 7.42 3.66 7.42 8.031 0 .421-.032.842-.097 1.198H83.789c.227 2.203 2.01 3.725 4.245 3.725 1.782 0 3.207-1.005 3.953-1.814l2.397 2.396Zm-49.493 2.522v-15.72h4.083v1.263c1.21-.972 2.712-1.588 4.476-1.588 2.189 0 4.182.973 5.488 2.528 1.046 1.232 1.634 2.82 1.634 5.51v8.007h-4.247v-8.33c0-1.556-.36-2.367-.948-2.95-.555-.55-1.404-.875-2.384-.875-1.797 0-3.267 1.134-3.855 1.945v10.21H44.89Zm33.822-3.221c-1.862 2.46-4.215 3.53-7.187 3.53-4.9 0-8.494-3.627-8.494-8.161 0-4.566 3.691-8.193 8.526-8.193 2.744 0 5.194 1.263 6.664 3.141l-3.005 2.623c-.85-1.1-2.123-1.878-3.659-1.878-2.45 0-4.28 1.91-4.28 4.307 0 2.461 1.797 4.274 4.378 4.274 1.731 0 3.104-1.036 3.79-2.072l3.267 2.429Zm-55.776-8.934c.604 0 1.206.065 1.492.162l.476-3.922a73.704 73.704 0 0 1-.155-.023 7.398 7.398 0 0 0-1.241-.107c-1.873 0-3.555.746-4.475 1.913v-1.589h-3.968v15.72h4.126v-9.885c.508-.94 1.936-2.27 3.745-2.27Zm81.911-3.566v15.72h4.247v-10.21c.588-.81 2.058-1.944 3.855-1.944.98 0 1.829.324 2.384.875.588.583.948 1.394.948 2.95v8.33h4.247v-8.006c0-2.69-.588-4.279-1.634-5.51-1.306-1.556-3.299-2.529-5.488-2.529-1.764 0-3.267.616-4.476 1.588v-1.264h-4.083Zm29.172-3.82a5.463 5.463 0 0 0-1.274-.164c-1.044 0-1.86.294-2.383.912-.359.456-.587 1.042-.587 2.508v.489h4.896v3.582h-4.896v12.214h-4.244V19.459h-4.081v-3.582h4.081v-.652c0-2.54.587-4.07 1.697-5.146 1.11-1.074 2.775-1.856 4.93-1.856.849 0 1.632.065 2.513.293l-.652 3.615ZM97.16 31.67h4.229V15.95h-4.228v15.72Zm54.05-7.673a8.113 8.113 0 0 0-7.933-8.369h-.244c-4.393.123-8.055 3.692-8.055 8.246 0 4.43 3.54 8 7.933 8.123 4.516.123 8.177-3.446 8.299-8Zm-3.86-.097c.063-2.359-1.779-4.271-4.129-4.335h-.127c-2.287.064-4.192 1.912-4.192 4.271 0 2.295 1.842 4.143 4.128 4.207 2.351.064 4.256-1.785 4.32-4.143Z" fill="#fff"/><path fill-rule="evenodd" clip-rule="evenodd" d="M154.987 18.384a2.73 2.73 0 0 0 2.756 2.756 2.73 2.73 0 0 0 2.756-2.756 2.73 2.73 0 0 0-2.756-2.757 2.73 2.73 0 0 0-2.756 2.757ZM157.743 32a2.73 2.73 0 0 1-2.756-2.756 2.73 2.73 0 0 1 2.756-2.756 2.73 2.73 0 0 1 2.756 2.756A2.73 2.73 0 0 1 157.743 32Z" fill="#FFC300"/></svg>