<svg
   xmlns:svg="http://www.w3.org/2000/svg"
   xmlns="http://www.w3.org/2000/svg"
   viewBox="0 0 530 100"
   height="100"
   width="530"
   id="svg867"
   version="1.1">
   <path
      fill="#fff"
      d="M 148.80423,2.6079047 C 133.95592,2.421819 121.92245,7.0834313 112.23001,16.775873 c -17.833506,17.833509 -18.828828,46.630659 -2.25,65.070313 8.00693,8.905636 17.764,14.233038 29.26172,15.978516 11.61301,1.762978 25.80306,-1.08645 35.19336,-7.06836 5.84084,-3.7208 14.04434,-12.342117 16.62305,-17.46875 C 207.72919,40.144569 185.56437,3.0685996 148.80423,2.6079047 Z m -97.066403,0.00195 C 45.737242,2.6028347 39.758376,3.3069155 35.304233,4.723139 9.19527,13.024653 -4.57838,41.270083 4.68314,67.520014 c 5.888561,16.689961 20.265755,27.998059 38.613281,30.369141 13.124906,1.696155 28.935893,-1.95888 40.007812,-9.248047 l 6.5,-4.279297 0.271484,-20.25 0.269532,-20.25 H 70.325717 50.304233 v 8.5 8.5 h 10.5 10.5 v 7.054688 7.05664 l -5.75,2.638672 c -4.751372,2.180786 -7.139395,2.627292 -13.75,2.576172 -9.41982,-0.07284 -13.758273,-1.67861 -19.955078,-7.390625 -6.243463,-5.755023 -8.938402,-12.509716 -8.951172,-22.435547 -0.0077,-5.961759 0.516945,-9.159431 2.054688,-12.550781 4.943913,-10.903356 13.960744,-16.926248 25.351562,-16.933594 8.353786,-0.0054 12.697945,1.243098 18.945312,5.447266 l 5.050782,3.398437 5.751953,-6.980469 c 3.163777,-3.839037 5.885095,-7.358155 6.048828,-7.822265 C 86.613724,13.467367 75.104436,6.897608 68.304233,4.7622015 63.760716,3.3354421 57.738412,2.6168843 51.737827,2.6098578 Z M 423.5972,2.8618109 403.939,49.111811 c -10.81162,25.4375 -19.65249,46.5875 -19.64649,47 0.006,0.4125 4.39922,0.747585 9.76172,0.744141 l 9.75,-0.0059 4.04102,-10.24414 4.04296,-10.244101 h 20.38672 20.38477 l 4.16601,10 4.16602,10 10.25195,0.285156 c 6.47797,0.180754 10.12448,-0.07908 9.90625,-0.707031 -0.18994,-0.546537 -9.1207,-21.706158 -19.8457,-47.021484 l -19.5,-46.0273442 -9.10352,-0.015625 z m 54.70703,0 v 8.0000001 8 h 9 9 v -8 -8.0000001 h -9 z m 29,0.1508438 0,7.8491563 v 8 h 9.5 l 8.41644,0 -0.0232,-7.852427 0.0232,-7.9967293 -8.41644,-0.00327 z m -302,0.8491562 v 46.5000001 46.5 h 10 10 V 67.162592 c 0,-23.747219 0.25054,-29.454909 1.25,-28.474609 0.6875,0.67432 10.92887,13.926039 22.75781,29.449219 l 21.50586,28.224609 8.74414,0.289062 8.74219,0.289063 V 50.400873 3.8618109 h -10 -10 V 32.420405 c 0,18.218539 -0.3512,28.341859 -0.9707,27.958984 -0.53412,-0.330102 -10.53374,-13.181237 -22.22071,-28.558594 L 223.86478,3.8618109 h -9.28125 z m 95,0 v 8.4824221 8.482422 l 25.16992,0.267578 25.17188,0.267578 -26.17188,30.417969 -26.16992,30.416015 v 7.333985 7.332031 h 39 39 v -8.5 -8.5 h -26 c -14.3,0 -26,-0.218645 -26,-0.486328 0,-0.267684 11.7,-14.094172 26,-30.72461 l 26,-30.236328 V 11.137202 3.8618109 h -38 z M 147.2515,20.861811 c 11.63795,0 20.73655,5.577079 25.73632,15.775391 2.3804,4.855445 2.8014,6.938815 2.76953,13.724609 -0.0597,12.707845 -5.75326,22.402242 -15.94531,27.148438 -7.64139,3.558413 -17.29143,3.298228 -25.25195,-0.679688 -9.90325,-4.948713 -15.31832,-14.022847 -15.42969,-25.859375 -0.17106,-18.179683 10.96985,-30.109375 28.1211,-30.109375 z m 345.05273,6 v 35 35 h 10 10 v -35 -35 h -10 z m -59.92383,1 c 0.51677,0 8.55561,18.843501 12.47852,29.25 0.60754,1.611659 -0.3853,1.75 -12.55469,1.75 -10.16821,0 -13.09921,-0.28812 -12.71875,-1.25 5.85688,-14.807083 12.28348,-29.75 12.79492,-29.75 z"
      id="path941-1" />
</svg>
