<?xml version="1.0" encoding="UTF-8" standalone="no"?>
<svg
   xmlns:dc="http://purl.org/dc/elements/1.1/"
   xmlns:cc="http://creativecommons.org/ns#"
   xmlns:rdf="http://www.w3.org/1999/02/22-rdf-syntax-ns#"
   xmlns:svg="http://www.w3.org/2000/svg"
   xmlns="http://www.w3.org/2000/svg"
   xmlns:sodipodi="http://sodipodi.sourceforge.net/DTD/sodipodi-0.dtd"
   xmlns:inkscape="http://www.inkscape.org/namespaces/inkscape"
   width="780.76343"
   height="113.71404"
   viewBox="0 0 780.76343 113.71404"
   version="1.1"
   id="svg4"
   sodipodi:docname="inrock.svg"
   inkscape:version="0.92.2 5c3e80d, 2017-08-06">
  <metadata
     id="metadata10">
    <rdf:RDF>
      <cc:Work
         rdf:about="">
        <dc:format>image/svg+xml</dc:format>
        <dc:type
           rdf:resource="http://purl.org/dc/dcmitype/StillImage" />
      </cc:Work>
    </rdf:RDF>
  </metadata>
  <defs
     id="defs8" />
  <sodipodi:namedview
     pagecolor="#ffffff"
     bordercolor="#666666"
     borderopacity="1"
     objecttolerance="10"
     gridtolerance="10"
     guidetolerance="10"
     inkscape:pageopacity="0"
     inkscape:pageshadow="2"
     inkscape:window-width="640"
     inkscape:window-height="480"
     id="namedview6"
     showgrid="false"
     inkscape:zoom="0.50240964"
     inkscape:cx="390.38172"
     inkscape:cy="56.85702"
     inkscape:window-x="0"
     inkscape:window-y="0"
     inkscape:window-maximized="0"
     inkscape:current-layer="svg4" />
  <path
     d="M 0,2.069276 H 16.705071 V 91.026751 H 0 Z m 58.818161,20.219846 c -7.316295,0 -13.41178,2.397751 -19.357471,7.124775 l -0.05028,0.04066 v -5.0341 H 22.567307 V 91.025681 H 39.410402 V 46.873282 l 0.0065,-0.0096 c 4.852208,-5.885773 10.304653,-9.261455 16.051334,-9.261455 10.074618,0 15.223198,6.4368 15.223198,17.659464 v 35.76514 H 87.396509 V 54.28595 c 0.001,-19.13813 -11.11033,-31.996747 -28.578272,-31.996747 z m 339.561379,46.282669 -0.008,0.0084 c -4.84794,5.886841 -10.30146,9.26359 -16.0492,9.26359 -10.07246,0 -15.2221,-6.436791 -15.2221,-17.658389 V 24.418165 H 350.39515 V 61.15905 c 0,19.138131 11.10924,31.997811 28.57721,31.997811 7.3184,0 13.41496,-2.39882 19.35531,-7.12798 l 0.0523,-0.0374 v 5.07154 h 16.84308 V 24.418165 H 398.38038 Z M 345.56379,24.380868 h -21.43103 l -28.5451,29.50163 V 2.069276 H 278.8858 v 88.956405 h 16.70186 V 76.042152 l 11.4955,-11.903149 20.33113,26.836388 0.0396,0.0503 h 21.77448 L 318.71669,52.078569 Z m -213.7678,13.866506 -0.0191,-14.94501 v -0.125176 h -0.12518 c -8.97791,0.02904 -15.61051,2.597829 -21.50592,8.325249 l -0.0524,0.05242 V 24.380868 H 93.250289 V 91.025681 H 110.09339 V 49.075232 l 0.006,-0.0084 C 115.69949,42.291931 122.759,38.75576 131.67593,38.252886 Z M 590.43918,22.142541 c -7.47892,0 -14.29341,2.696262 -19.70414,6.480665 l -0.0504,0.03515 V 2.104431 h -16.8474 v 88.91147 h 16.84737 v -4.28621 l 0.0504,0.031 c 5.41394,3.78654 12.22736,5.78627 19.70414,5.78627 9.00682,0 17.43908,-3.61535 23.73999,-10.17947 6.31481,-6.566259 9.79215,-15.353725 9.79215,-24.746783 0,-19.178789 -15.04347,-35.478351 -33.53214,-35.478351 z m -2.3678,55.79342 c -7.40189,0 -13.24913,-3.017249 -17.3802,-8.969358 l -0.008,-0.0084 V 46.290316 l 0.008,-0.0096 c 4.15033,-5.861166 9.99547,-8.830267 17.3802,-8.830267 10.76261,0 19.19487,8.860224 19.19487,20.171699 0,11.392786 -8.43226,20.313993 -19.19487,20.313993 z M 628.69404,2.069276 h 16.84312 V 91.016051 H 628.69404 Z M 539.5686,0 c -5.84942,0 -10.2608,4.350401 -10.2608,10.122763 0,5.519852 4.50771,9.844574 10.2608,9.844574 5.75094,0 10.25652,-4.324722 10.25652,-9.844574 C 549.82512,4.350401 545.41583,0 539.5686,0 Z m -8.28355,24.420457 h 16.70297 v 66.605224 h -16.70297 z m 154.3216,-1.623111 c -10.29824,0 -19.16273,3.46449 -25.64128,10.02005 -6.25704,6.32873 -9.70228,15.175049 -9.70228,24.906208 0,9.673386 3.44631,18.473698 9.70228,24.784237 6.4839,6.54058 15.34946,9.99971 25.64128,9.99971 15.22638,0 27.50509,-7.8641 31.28307,-20.039019 l 0.13144,-0.43012 h -17.79639 l -0.10049,0.1669 c -2.28645,3.90745 -6.81876,5.972449 -13.10255,5.972449 -9.69262,0 -16.54887,-5.031959 -18.81178,-13.804451 l -0.0115,-0.03959 h 50.49188 l 0.0417,-0.278207 c 0.42581,-2.536843 0.42581,-5.036239 0.42581,-7.454317 C 718.02296,37.01369 704.32987,22.79731 685.60582,22.79731 Z m -18.55718,28.875712 0.008,-0.03959 c 2.10243,-9.079564 8.7222,-14.500982 17.71294,-14.500982 9.0004,0 14.95998,5.286602 16.34772,14.503122 l 0.008,0.03745 z m 93.76261,-0.136945 -12.26476,-1.951583 c -6.0206,-1.059246 -9.07316,-3.483744 -9.07316,-7.206086 0,-4.120364 4.52479,-6.78346 11.52654,-6.78346 8.33808,0 13.40319,3.400289 13.89431,9.323512 l 0.0153,0.159412 h 15.60623 l -0.0306,-0.35306 C 778.7762,24.681542 759.29567,22.518111 751.00146,22.518111 c -17.06673,0 -28.09467,8.451506 -28.09467,21.53374 0,12.995566 10.7722,17.670163 19.81112,19.301833 l 14.35225,2.36779 c 4.95492,0.940482 7.68652,3.299712 7.68652,6.645438 0,4.1439 -5.1914,6.925759 -12.91854,6.925759 -9.23257,0 -14.56519,-3.661359 -15.85447,-10.88563 l -0.0481,-0.27175 -15.41151,-0.0084 0.0153,0.225745 c 1.32887,15.708945 12.58473,24.713615 30.88186,24.713615 17.82531,0 29.34222,-8.67084 29.34222,-22.089039 -0.002,-10.657736 -6.52455,-17.013218 -19.95024,-19.440925 z M 516.84935,8.408708 h -16.70721 v 16.011749 h -8.57242 v 14.196048 h 8.57242 v 52.448766 h 16.70721 V 38.616505 h 8.57455 V 24.420457 h -8.57455 z m -59.16911,14.476376 c -7.47464,0 -14.29127,2.001868 -19.70627,5.786271 l -0.0504,0.03439 V 24.42061 h -16.8474 v 89.29343 h 16.84736 V 86.779221 l 0.0504,0.0309 c 5.415,3.78653 12.22949,5.78626 19.70627,5.78626 18.48761,0 33.52786,-15.60409 33.52786,-34.786087 0,-9.385569 -3.47519,-18.17518 -9.7868,-24.746789 -6.31271,-6.563126 -14.74493,-10.178472 -23.74106,-10.178472 z m -2.37208,55.101167 c -7.40402,0 -13.24912,-3.017249 -17.37806,-8.969363 l -0.008,-0.0084 v -22.53307 l 0.008,-0.0065 c 4.1268,-5.95104 9.97404,-8.969359 17.37806,-8.969359 10.76476,0 19.19591,8.92121 19.19591,20.310791 10e-4,11.314681 -8.43115,20.175971 -19.19591,20.175971 z M 241.39595,38.206714 c 7.91332,0 13.99917,4.41674 15.50138,11.256908 l 0.0663,0.308164 h 17.19832 l -0.0588,-0.445101 c -2.11101,-15.620146 -15.56023,-26.52825 -32.70826,-26.52825 -20.15565,0 -35.35638,15.017769 -35.35638,34.935891 0,19.842155 15.20073,34.804275 35.35638,34.804275 17.16729,0 30.61651,-10.91024 32.70826,-26.53359 l 0.0588,-0.442961 h -17.20046 l -0.0663,0.307094 c -1.49043,6.927908 -7.57522,11.401347 -15.49924,11.401347 -10.75189,0 -18.55501,-8.217185 -18.55501,-19.537216 0,-11.313615 7.80312,-19.526523 18.55501,-19.526523 z M 22.556608,2.069276 h 3.207699 v 16.76392 h -3.207699 z m 11.491223,17.066715 c 2.984082,0 5.389322,-1.518255 6.135074,-3.922425 h -3.400289 c -0.469708,0.80139 -1.381303,1.21546 -2.653467,1.21546 -2.21051,0 -3.42704,-1.244347 -3.815429,-2.873877 h 10.035024 c 0.08345,-0.499665 0.08345,-0.99505 0.08345,-1.464758 -0.02904,-3.926701 -2.764742,-6.636875 -6.384372,-6.636875 -4.174928,0 -6.93967,2.960541 -6.93967,6.857286 0,3.869997 2.764742,6.825189 6.93967,6.825189 z M 33.880929,8.16262 c 1.905575,0 3.069677,1.159823 3.316835,3.01297 H 30.28912 c 0.356309,-1.684098 1.546073,-3.01297 3.591809,-3.01297 z m 13.840829,8.486817 c -1.769693,0 -2.931655,-0.662298 -3.20556,-2.21051 l -2.929515,-0.02904 c 0.300675,3.596093 3.065398,4.8383 6.051617,4.8383 3.289017,0 5.750964,-1.518255 5.750964,-4.310814 0,-2.543266 -1.909854,-3.42704 -3.897817,-3.786543 l -2.431998,-0.3861 c -1.41019,-0.250352 -1.855287,-0.857028 -1.855287,-1.494715 0,-0.773572 0.80246,-1.40805 2.350672,-1.40805 1.492574,0 2.708034,0.580981 2.821449,1.906645 L 53.333615,9.74079 C 53.028699,6.174658 49.79316,5.400017 47.555904,5.400017 c -3.260128,0 -5.500594,1.578171 -5.500594,4.203821 0,2.377419 1.880964,3.399219 3.869997,3.759788 l 2.846057,0.469708 c 1.021796,0.193648 1.576029,0.689044 1.576029,1.383443 -0.0011,0.880564 -1.077435,1.432657 -2.625647,1.432657 z m 118.851782,6.198197 c -20.21663,0 -35.46337,14.995298 -35.4837,34.886673 0.0214,19.893504 15.20929,34.887734 35.34568,34.887734 l 0.13801,-0.002 0.13802,0.002 c 20.13639,0 35.32535,-14.9953 35.34354,-34.887734 -0.0191,-19.892445 -15.266,-34.886673 -35.48156,-34.886673 z m 18.77542,34.886673 c -0.0191,11.345708 -7.84913,19.576804 -18.63847,19.576804 -0.0481,0 -0.092,-0.006 -0.13801,-0.006 -0.046,0 -0.092,0.006 -0.13801,0.006 -10.78934,0 -18.62135,-8.231096 -18.63847,-19.576804 h -0.004 c 0.0172,-11.344642 7.91011,-19.575741 18.78076,-19.575741 10.87066,0 18.76151,8.231099 18.78077,19.575741 z"
     id="path2"
     inkscape:connector-curvature="0"
     style="fill:#ffffff" />
</svg>
