<!DOCTYPE svg PUBLIC "-//W3C//DTD SVG 20010904//EN" "http://www.w3.org/TR/2001/REC-SVG-20010904/DTD/svg10.dtd">
<svg version="1.0" xmlns="http://www.w3.org/2000/svg" width="863px" height="472px" viewBox="0 0 8630 4720" preserveAspectRatio="xMidYMid meet">
<g id="layer101" fill="#ffdd00" stroke="none">
 <path d="M0 4698 c0 -16 11 -29 38 -43 137 -73 237 -443 272 -1005 5 -91 10 -586 10 -1101 0 -1051 3 -1007 -70 -1078 -22 -21 -74 -54 -115 -72 -58 -26 -75 -39 -75 -55 0 -19 35 -27 541 -122 298 -56 545 -99 550 -96 12 7 11 2070 -1 2250 -28 414 -150 708 -394 949 -116 114 -214 183 -371 261 -100 49 -335 134 -370 134 -9 0 -15 -9 -15 -22z"/>
 <path d="M1880 3594 c-305 -65 -490 -268 -490 -537 0 -220 133 -407 376 -530 113 -57 379 -135 832 -242 l24 -6 -4 -252 c-5 -279 -11 -317 -73 -442 -41 -84 -98 -146 -168 -182 -44 -23 -65 -27 -132 -27 -124 0 -231 56 -194 101 7 8 41 28 75 44 112 53 178 158 179 285 0 62 -4 80 -35 140 -121 236 -452 228 -563 -15 -34 -72 -31 -188 6 -263 47 -96 230 -246 383 -314 288 -127 719 -78 1002 115 119 81 240 224 293 348 11 26 30 79 41 118 21 67 22 97 28 635 5 513 8 570 24 617 34 95 101 153 176 153 41 0 101 -26 122 -52 13 -19 19 -20 32 -9 14 12 14 17 -4 50 -27 53 -121 136 -199 175 -212 107 -477 135 -666 71 -95 -31 -133 -54 -199 -115 -46 -43 -106 -144 -106 -181 0 -36 -14 -24 -46 41 -65 129 -198 227 -368 270 -94 24 -247 26 -346 4z m607 -265 c38 -14 90 -65 114 -111 18 -35 19 -63 19 -462 l0 -424 -37 10 c-71 19 -181 78 -231 123 -84 76 -125 209 -126 410 0 214 68 400 165 448 40 20 58 21 96 6z"/>
 <path d="M4734 3596 c-614 -117 -1012 -649 -954 -1278 27 -293 124 -515 299 -689 166 -164 386 -276 639 -326 129 -25 352 -22 457 6 160 43 305 129 431 255 68 68 85 90 98 135 48 163 -16 316 -162 388 -48 24 -69 28 -137 28 -98 0 -159 -28 -228 -105 -55 -61 -77 -121 -77 -209 0 -124 73 -234 189 -286 101 -46 90 -90 -32 -127 -173 -52 -342 26 -468 219 -252 386 -233 1051 42 1449 147 212 360 309 604 275 88 -13 189 -54 231 -96 20 -21 29 -23 40 -14 24 19 17 34 -52 108 -111 119 -260 205 -439 252 -103 27 -373 35 -481 15z"/>
 <path d="M5780 3546 c0 -17 7 -26 24 -30 65 -16 126 -105 145 -211 8 -40 11 -481 11 -1424 0 -1300 -1 -1368 -19 -1406 -25 -55 -84 -105 -164 -140 -54 -24 -67 -34 -67 -52 0 -18 8 -23 53 -32 134 -28 1011 -191 1023 -191 12 0 14 190 16 1224 l3 1224 275 -283 c169 -173 288 -303 309 -338 104 -176 126 -351 55 -444 -30 -40 -54 -53 -119 -68 -39 -9 -50 -16 -50 -31 0 -19 15 -19 665 -19 626 0 665 1 668 18 4 21 4 21 -127 41 -352 54 -762 286 -1124 636 -79 76 -99 101 -91 111 216 277 808 1030 863 1098 131 163 276 260 425 283 69 11 76 15 76 35 l0 23 -503 0 c-456 0 -509 -2 -568 -18 -178 -49 -250 -126 -574 -607 -92 -137 -172 -254 -177 -260 -6 -6 -8 95 -6 275 4 227 8 300 22 358 23 94 66 159 129 190 31 16 47 31 47 43 0 18 -21 19 -610 19 l-610 0 0 -24z"/>
 <path d="M550 987 c-156 -53 -270 -161 -323 -305 -25 -70 -34 -217 -18 -292 38 -177 196 -339 371 -379 58 -13 192 -13 250 0 129 30 275 144 332 259 102 206 66 432 -92 590 -104 104 -217 150 -370 150 -61 0 -103 -7 -150 -23z"/>
 </g>

</svg>