<?xml version="1.0" encoding="utf-8"?>
<!DOCTYPE svg PUBLIC "-//W3C//DTD SVG 1.1//EN" "http://www.w3.org/Graphics/SVG/1.1/DTD/svg11.dtd"><svg version="1.1" xmlns="http://www.w3.org/2000/svg" xmlns:xlink="http://www.w3.org/1999/xlink" x="0px" y="0px" viewBox="0 0 3115 1080" xml:space="preserve">
     <path fill="#fff" d="M1020.9,260.3h477.6L1456,417.6h-295l-13.2,55.7h241.4l-36.9,129.5h-241.4l-14.8,57.2h294l-43.7,159.3H871.8L1020.9,260.3z"
         />
     <path fill="#fff" d="M1551.7,260.3h186.8l-107,399.2h290.5L1879,819.2h-477.4L1551.7,260.3z"/>
     <polygon fill="#fff" points="2462.2,607.5 2408,819.2 2596.3,819.2 2652,614.1 2956.9,260.3 2747.4,260.3 2600.7,424 2556.7,260.3 2370.2,260.3"/>
     <polygon fill="#fff" points="782.6,260.3 635,418.1 591.9,260.3 407.7,260.3 258.8,819.2 441.8,819.2 511.5,557.9 554.7,733 700,555.1
    629.4,819.2 817.3,819.2 965.1,260.5 "/>
     <polygon fill="#fff" points="2316.8,261.2 1881,260.3 1838.7,418.4 2041.6,418.4 1935.8,819.2 2122.6,819.2 2230.4,418.4 2357.2,418.4 "/>
     </svg>
