<?xml version="1.0" encoding="UTF-8" standalone="no"?>
<svg
   xmlns:dc="http://purl.org/dc/elements/1.1/"
   xmlns:cc="http://creativecommons.org/ns#"
   xmlns:rdf="http://www.w3.org/1999/02/22-rdf-syntax-ns#"
   xmlns:svg="http://www.w3.org/2000/svg"
   xmlns="http://www.w3.org/2000/svg"
   xmlns:sodipodi="http://sodipodi.sourceforge.net/DTD/sodipodi-0.dtd"
   xmlns:inkscape="http://www.inkscape.org/namespaces/inkscape"
   inkscape:version="1.1-dev (48d18c81, 2020-07-08)"
   sodipodi:docname="musJournal.svg"
   version="1.1"
   viewBox="0 0 57 30"
   height="30"
   width="57"
   data-name="f6e02cb2-7785-4fc3-b342-9641c07a9786"
   id="1debeac5-aafe-438c-9a82-d4df2ed2e9c5">
  <defs
     id="defs84" />
  <sodipodi:namedview
     inkscape:current-layer="1debeac5-aafe-438c-9a82-d4df2ed2e9c5"
     inkscape:window-maximized="1"
     inkscape:window-y="23"
     inkscape:window-x="0"
     inkscape:cy="24.886573"
     inkscape:cx="46.258903"
     inkscape:zoom="6.9716309"
     width="63px"
     showgrid="false"
     id="namedview82"
     inkscape:window-height="855"
     inkscape:window-width="1440"
     inkscape:pageshadow="2"
     inkscape:pageopacity="0"
     guidetolerance="10"
     gridtolerance="10"
     objecttolerance="10"
     borderopacity="1"
     bordercolor="#666666"
     pagecolor="#ffffff" />
  <title
     id="title77">musique-journal-logo-m</title>
  <path
     style="stroke-width:0.910275"
     id="path79"
     d="M 4.678553,4.8048423 A 14.564409,14.564409 0 1 0 25.272605,5.1643128 14.564409,14.564409 0 0 0 4.678553,4.8048423 Z m 19.49105,11.5480807 -1.172086,1.13187 -8.485876,-8.7873816 3.003801,8.2603736 -1.106609,1.068639 -8.2026667,-3.252538 8.4921987,8.793929 -1.15899,1.119225 L 5.4220863,14.21028 7.1180113,12.572545 15.428175,15.9364 12.35639,7.5138996 14.058864,5.8698399 Z" />
  <metadata
     id="metadata86">
    <rdf:RDF>
      <cc:Work
         rdf:about="">
        <dc:title>musique-journal-logo-m</dc:title>
      </cc:Work>
    </rdf:RDF>
  </metadata>
  <path
     d="M 29.50146,1.3227839 V 28.192784 h 26.86 V 1.3227839 Z m 19,16.3800001 a 5.36,5.36 0 0 1 -5.45,5.26 c -1.82,0 -3.32,-0.71 -5.34,-2.53 l -0.38,-0.34 1.78,-0.83 0.17,0.15 a 5.65,5.65 0 0 0 3.79,1.76 3.51,3.51 0 0 0 3.63,-3.39 V 6.5527839 h 1.8 z"
     id="path145" />
  <path
     id="path227"
     d="M 11.821264,20.690998 C 9.8199437,18.620105 7.5808356,16.305506 6.8454685,15.547445 L 5.5084372,14.169153 6.3583736,13.43284 7.20831,12.696528 l 4.060558,1.64843 c 2.233306,0.906637 4.080854,1.64843 4.105662,1.64843 0.144065,0 -0.102206,-0.752568 -1.440278,-4.401269 L 12.4517,7.5494464 l 0.802635,-0.7873438 0.802634,-0.7873437 4.985722,5.1849871 4.985722,5.184986 -0.507265,0.505661 -0.507266,0.505661 -1.328136,-1.362666 C 20.955273,15.243922 19.05515,13.278384 17.463251,11.625525 15.871353,9.9726663 14.540307,8.6494465 14.505372,8.6850366 c -0.03493,0.03559 0.605441,1.9041984 1.423057,4.1524634 l 1.486575,4.087755 -0.452069,0.466416 c -0.248638,0.25653 -0.515675,0.466417 -0.593415,0.466417 -0.07774,0 -1.945431,-0.712298 -4.150423,-1.582884 -2.204992,-0.870587 -4.0315877,-1.560373 -4.0591024,-1.532858 -0.027514,0.02752 1.8468644,2.014622 4.1652874,4.415794 l 4.215313,4.365767 -0.44518,0.466175 c -0.244848,0.256397 -0.487976,0.466175 -0.540283,0.466175 -0.05231,0 -1.732548,-1.694366 -3.733868,-3.765259 z"
     style="fill:#ffffff;stroke-width:0.143438" />
  <path
     id="path229"
     d="m 41.525434,22.681455 c -0.35501,-0.103335 -0.905327,-0.321132 -1.222926,-0.483993 -0.647563,-0.332065 -2.161143,-1.440085 -2.54187,-1.860783 -0.240953,-0.26625 -0.223836,-0.285683 0.525047,-0.596077 l 0.774119,-0.320855 0.76664,0.582972 c 1.027327,0.781206 2.117896,1.177288 3.276813,1.190101 1.545492,0.01709 2.717466,-0.697272 3.353019,-2.043786 0.292781,-0.620302 0.306347,-0.876209 0.347873,-6.562309 l 0.04321,-5.9168366 h 0.787365 0.787365 l -0.04166,6.1319946 -0.04166,6.131994 -0.385587,0.822733 c -0.495389,1.057018 -1.618667,2.176685 -2.664519,2.655953 -0.975357,0.446963 -2.722554,0.571805 -3.763221,0.268892 z"
     style="fill:#ffffff;stroke-width:0.143438" />
</svg>
