<?xml version="1.0" encoding="UTF-8" standalone="no"?>
<svg
   xmlns:dc="http://purl.org/dc/elements/1.1/"
   xmlns:cc="http://creativecommons.org/ns#"
   xmlns:rdf="http://www.w3.org/1999/02/22-rdf-syntax-ns#"
   xmlns:svg="http://www.w3.org/2000/svg"
   xmlns="http://www.w3.org/2000/svg"
   xmlns:sodipodi="http://sodipodi.sourceforge.net/DTD/sodipodi-0.dtd"
   xmlns:inkscape="http://www.inkscape.org/namespaces/inkscape"
   width="1361.72"
   height="237.76"
   version="1.1"
   id="svg4"
   sodipodi:docname="Pitchfork2.svg"
   inkscape:version="0.92.2 5c3e80d, 2017-08-06">
  <metadata
     id="metadata10">
    <rdf:RDF>
      <cc:Work
         rdf:about="">
        <dc:format>image/svg+xml</dc:format>
        <dc:type
           rdf:resource="http://purl.org/dc/dcmitype/StillImage" />
      </cc:Work>
    </rdf:RDF>
  </metadata>
  <defs
     id="defs8" />
  <sodipodi:namedview
     pagecolor="#ffffff"
     bordercolor="#666666"
     borderopacity="1"
     objecttolerance="10"
     gridtolerance="10"
     guidetolerance="10"
     inkscape:pageopacity="0"
     inkscape:pageshadow="2"
     inkscape:window-width="904"
     inkscape:window-height="553"
     id="namedview6"
     showgrid="false"
     inkscape:zoom="0.30623036"
     inkscape:cx="680.85999"
     inkscape:cy="118.88"
     inkscape:window-x="0"
     inkscape:window-y="0"
     inkscape:window-maximized="0"
     inkscape:current-layer="svg4" />
  <path
     d="M348.6 235.48c-10.42-2.8-20.48-9.56-24.92-16.75-7.4-11.97-8.78-22.96-8.78-69.74v-43.9h-20.42l.05-7.23.05-7.23 15.68-7.47c18.82-8.97 35.3-24.27 42.84-39.77 4.71-9.7 4.82-9.79 12.21-9.79h7.46V82.97h39.15V105.1h-39.15v41.27c0 37.87.28 41.73 3.32 46.7 5.75 9.44 8.26 9.96 34 6.97 3.09-.35 4.91.88 7.32 4.96l3.21 5.43-6.85 6.86c-11.84 11.84-34.05 20.77-50.88 20.46-3.46-.06-9.9-1.08-14.29-2.27zm123.75.1c-33.7-8.8-52.1-35.24-52.32-75.16-.33-62.6 40.49-97.62 102.11-87.61 13 2.1 34.46 9.86 35.6 12.86.75 1.92-3.7 15.14-16.3 48.5-3.46 9.17-3.77 9.46-9.1 8.72-7.03-.98-9.78-3.2-9.78-7.9 0-7.95-5.52-21.84-11.18-28.1-7.42-8.21-17.86-11.32-28.43-8.48-27.35 7.37-31.68 57.98-6.82 79.85 20.01 17.62 51.93 15.24 65.9-4.91l4.75-6.86 6.1 2.55c3.36 1.4 6.3 2.75 6.55 3 1.38 1.38-5.7 22.4-10.88 32.28-11.12 21.23-27.9 31.41-54 32.77-8.16.43-17.13-.18-22.2-1.5zm464.7.52c-31.62-6.48-53.42-26.66-61.52-56.96-2.68-10-2.97-37.66-.51-48.32 11.4-49.43 67.97-74.06 117.01-50.94 39.46 18.6 54.97 73.27 33.14 116.81-14.6 29.12-53.49 46.5-88.13 39.4zm24.29-18.67c6.07-5.65 8.76-18.76 9.91-48.3 1.28-32.7-1.2-63.45-5.83-72.39-6-11.58-18.3-11.57-24.2 0-7 13.7-8.67 87.62-2.46 108.25 4.36 14.49 14.43 20.04 22.58 12.44zM0 222.97v-9.79l7.95-2.55c4.79-1.53 9.36-4.47 11.48-7.36 3.46-4.7 3.53-6.55 3.53-84.56 0-78-.07-79.85-3.52-84.55-2.13-2.9-6.7-5.83-11.49-7.36L0 24.24V4.41l62.56.68c58.85.64 63.3.9 75.31 4.5 17.8 5.34 27.76 11.21 38.24 22.54 14.32 15.47 19.3 36.13 13.86 57.65-8.26 32.7-38.7 51.89-85.7 54.02l-20.86.94v24.01c0 35 3.74 40.35 29.96 42.8l12.6 1.18v20.03H0v-9.79zm110.27-105.43c5.15-3.22 9.38-7.83 12.89-14.07 4.55-8.1 5.31-11.32 5.92-25.16.8-18.37-1.39-28.18-8.45-37.93-5.98-8.25-15.32-13.18-27.74-14.64l-9.49-1.11v99.67l9.6-1a40.89 40.89 0 0 0 17.27-5.76zm83.77 105.36v-9.86l7.6-2.03c13.02-3.48 13.6-5.45 14.23-48.6.37-25.2-.09-38.82-1.4-41.98-2.2-5.3-8.01-8.53-15.4-8.53-5 0-5.03-.04-5.03-10.1V91.67l14.9-4.55c41.4-12.67 47.84-14.34 55.32-14.36l8.08-.02.04 58.3c.03 32.07.73 61.25 1.56 64.85 2.03 8.73 7.54 14.25 15.61 15.61l6.62 1.12V232.76H194.04zm362.58.07l.01-9.79 8.08-2.55c14.29-4.52 14.03-2.87 14.03-88.16v-73.7l-4.18-4.18c-3.06-3.06-6.02-4.18-11.06-4.18h-6.89V19.1l32.77-8.99c18.02-4.94 36.02-8.95 40-8.91l7.23.07V97.1l5.1-7.03c10.09-13.93 25.63-20.23 45.68-18.52 19.57 1.68 32.24 9.55 39.64 24.63 3.77 7.7 4 10.25 4.85 55.73 1.02 53.84 1.35 55.23 13.86 58.98l6.62 1.98v19.89h-93.62v-10.08c0-9.84.12-10.1 5.17-11.21 9.7-2.13 10.83-6.3 11.58-42.79.9-43.42-.28-54.18-6.57-60.48-5.56-5.55-14.06-6.4-22.15-2.22-9.52 4.92-10.16 8.34-10.16 54.83 0 46.5.41 48.52 10.22 50.67 4.97 1.1 5.1 1.39 5.1 11.2v10.08h-95.32l.02-9.79zm202.55-.15v-9.95l6.89-2.06c4.66-1.4 7.96-3.82 10.2-7.5 3.08-5.04 3.32-8.86 3.33-51.83V105.1h-23.83v-7.66c0-7.06.33-7.66 4.3-7.66 5.43 0 14.6-3.78 17.41-7.16 1.18-1.42 2.89-8.49 3.8-15.7 5.82-45.87 45.93-73.25 96.2-65.66 17.92 2.7 40.51 9.83 39.47 12.46l-12.35 31.5c-10.44 26.63-11.9 29.39-15.08 28.53a31.2 31.2 0 0 0-6.41-.97c-2.15-.02-3.14-2.08-3.92-8.11-3.63-28.27-11.66-39.58-28.1-39.58-9.16 0-15.75 3.96-20.42 12.26-5.02 8.94-4.96 25.22.14 37.07l3.67 8.55H868.1V105.1H837.3l.5 47.62.51 47.63 4.4 4.4c3.2 3.19 7.5 4.92 15.74 6.33l11.35 1.95V232.76H759.16zm279.16.15v-9.79l8.08-2.55c13.18-4.16 14.03-7.27 14.03-51.35 0-20.29-.47-38.12-1.05-39.64-1.38-3.58-9.5-7.73-15.11-7.73-4.34 0-4.42-.2-3.92-10.58l.5-10.57 28.1-8.98c17.43-5.58 31.15-8.99 36.17-9l8.08-.02.11 25.95.11 25.96 2.51-9.34c3.73-13.85 12.7-29.02 20.86-35.27 8.26-6.33 16.5-8.98 27.9-9h8.09v59.4l-8.35-.98c-19.54-2.31-34.27 2.79-42.25 14.63-3.56 5.29-3.87 7.62-3.87 29.25 0 13.27.8 25.26 1.84 27.55 2.63 5.76 9.8 9.46 20.9 10.77l9.6 1.12v19.96H1038.3l.02-9.79zm125.96 0v-9.79l8.08-2.55c14.29-4.52 14.03-2.87 14.03-88.16v-73.7l-4.18-4.18c-3.06-3.06-6.02-4.18-11.06-4.18h-6.89V19.1l32.77-8.99c18.02-4.94 36.02-8.95 40-8.91l7.23.07v142.55l17.76-9.3c19.18-10.04 24.4-15.98 22.1-25.12-1.3-5.22-8.2-10.98-14.7-12.28-4.53-.9-4.73-1.38-4.73-10.95v-10h85.11v8.36c0 8.1-.34 8.67-10.91 18.36-6.08 5.57-17.37 13.36-25.51 17.6-8.03 4.18-14.61 8.2-14.63 8.95-.01.74 10.81 17.5 24.05 37.23 19.6 29.22 25.43 36.71 31.43 40.35l7.38 4.47.05 10.64.05 10.64h-69.58l-23.5-37.66-23.52-37.66-.5 18.51c-.68 24.59.24 28.94 6.98 33.05 3 1.83 6.78 3.32 8.42 3.33 2.5 0 2.98 1.63 2.98 10.22v10.21H1164.27l.02-9.79zM230.2 65.76c-18.76-9.29-22.51-34.28-7.41-49.38 21.28-21.28 55.5-4.6 52.6 25.63-2.04 21.15-25.5 33.49-45.18 23.75z"
     id="path2"
     style="fill:#ffffff" />
</svg>
