<?xml version="1.0" encoding="UTF-8"?>
<!DOCTYPE svg PUBLIC "-//W3C//DTD SVG 1.1//EN" "http://www.w3.org/Graphics/SVG/1.1/DTD/svg11.dtd">
<!-- Creator: CorelDRAW X6 -->
<svg xmlns="http://www.w3.org/2000/svg" xml:space="preserve" width="8.19444in" height="1.45833in" version="1.1" style="shape-rendering:geometricPrecision; text-rendering:geometricPrecision; image-rendering:optimizeQuality; fill-rule:evenodd; clip-rule:evenodd"
viewBox="0 0 8194 1458"
 xmlns:xlink="http://www.w3.org/1999/xlink">
 <defs>
  <style type="text/css">
   <![CDATA[
    .fil0 {fill:#C60E24;fill-rule:nonzero}
   ]]>
  </style>
 </defs>
 <g id="Layer_x0020_1">
  <metadata id="CorelCorpID_0Corel-Layer"/>
  <path class="fil0" d="M7503 986l-22 114 -392 0 19 -114c60,0 68,-5 76,-57l43 -282c7,-48 -22,-65 -50,-65 -56,0 -116,59 -126,128l-35 229c-5,32 0,47 67,47l-18 114 -397 0 21 -114c72,0 84,-10 91,-54l47 -290c3,-20 0,-23 -16,-23l-87 0 18 -100 355 -153 10 10 -16 89c65,-58 137,-98 219,-98 114,0 170,96 170,198 0,24 -2,44 -7,78l-47 286c-8,48 0,57 78,57z"/>
  <path class="fil0" d="M6068 401l-67 144c-28,-12 -62,-16 -81,-16l-81 0 -54 333c-10,60 2,70 32,70 34,0 68,-17 129,-73l53 104c-73,77 -165,158 -283,158 -125,0 -180,-71 -180,-185 0,-24 4,-57 7,-79l53 -329 -92 1 22 -126 88 1 21 -133 242 -98 16 16 -34 213 210 -1z"/>
  <path class="fil0" d="M5598 42c-28,94 -60,232 -75,327l-141 0c13,-47 17,-76 18,-101 1,-61 -68,-100 -172,-100 -106,0 -176,54 -177,122 -1,64 23,91 104,148l141 100c131,92 209,179 207,329 -4,248 -212,374 -481,374 -63,0 -108,-16 -151,-26 -37,-9 -73,-21 -111,-21 -21,0 -58,7 -82,22l-22 -12c-17,-120 -45,-253 -66,-353l147 -35c39,182 116,265 299,265 120,0 185,-58 186,-153 2,-90 -45,-127 -131,-183 -38,-25 -76,-49 -111,-73 -36,-24 -71,-50 -100,-79 -58,-60 -96,-139 -94,-249 3,-195 178,-333 415,-333 99,0 176,25 265,29 30,2 80,-5 111,-13l21 16z"/>
  <path class="fil0" d="M3073 160c0,92 -100,173 -204,173 -53,0 -114,-22 -114,-97 0,-110 112,-185 205,-185 61,0 113,41 113,109z"/>
  <path class="fil0" d="M3049 376l-89 543c-10,61 -11,67 76,67l-18 114 -409 0 18 -114c67,0 87,-16 92,-53l45 -296c3,-18 3,-19 -15,-19l-94 0 18 -100 365 -153 10 10z"/>
  <path class="fil0" d="M2685 36l-144 879c-11,66 -3,72 62,72l-18 114 -399 0 18 -114c70,0 87,-14 95,-63l100 -620c3,-21 1,-23 -15,-23l-92 0 18 -101 365 -153 10 10z"/>
  <path class="fil0" d="M7968 590c-2,-65 -28,-84 -66,-84 -43,0 -105,53 -128,170l194 -87zm233 35l-446 205c9,76 52,128 122,128 73,0 98,-41 98,-60 0,-11 -4,-18 -7,-23 -6,-8 -10,-13 -10,-23 0,-8 2,-13 6,-18 19,-24 59,-43 100,-43 52,0 98,39 98,98 0,129 -126,233 -324,233 -195,0 -334,-118 -334,-342 0,-200 170,-417 393,-417 187,0 277,94 305,261z"/>
  <path class="fil0" d="M6459 624c0,-81 -27,-117 -75,-117 -70,0 -145,148 -145,358 0,81 27,116 75,116 74,0 145,-171 145,-356zm254 59c0,220 -159,441 -411,441 -191,0 -312,-106 -312,-329 0,-232 170,-434 406,-434 184,0 317,116 317,321z"/>
  <path class="fil0" d="M4286 1213c0,-17 -15,-28 -51,-28 -41,0 -101,6 -144,6 -71,0 -131,-11 -186,-38 -29,23 -45,48 -45,85 0,48 62,87 131,87 182,0 296,-66 296,-111zm22 -641c0,-51 -16,-76 -48,-76 -75,0 -107,139 -107,221 0,58 12,82 51,82 66,0 104,-151 104,-227zm456 -120c0,47 -41,104 -81,104 -13,0 -18,-9 -25,-19 -3,-5 -8,-10 -18,-13 -6,-2 -12,-3 -18,-3 -43,0 -72,48 -72,91 0,9 1,19 1,29 0,46 -14,90 -38,131 -54,92 -171,164 -298,164 -50,0 -96,-5 -133,-19 -6,6 -12,18 -12,29 0,30 23,37 60,37 76,0 163,-12 233,-12 120,0 207,59 207,170 0,197 -319,317 -600,317 -167,0 -327,-48 -327,-189 0,-70 40,-124 132,-169l-331 0 19 -114c66,-1 73,-6 79,-48l44 -293c5,-36 -19,-62 -50,-62 -58,0 -116,65 -125,117l-38 242c-5,30 2,44 65,44l-18 114 -380 0 19 -114c66,0 68,-10 73,-44l48 -302c3,-20 0,-22 -15,-22l-94 0 19 -101 362 -151 12 10 -15 88c73,-63 148,-98 214,-98 123,0 173,85 173,208 0,11 -3,38 -4,48l-50 312c-6,38 20,49 57,51 18,-69 70,-106 131,-131 -35,-38 -69,-90 -69,-179 0,-198 178,-318 359,-318 83,0 185,28 242,114 41,-72 98,-114 160,-114 55,0 98,35 98,94z"/>
  <path class="fil0" d="M1610 624c0,-81 -27,-117 -75,-117 -70,0 -145,148 -145,358 0,81 27,116 75,116 74,0 145,-171 145,-356zm254 59c0,220 -159,441 -411,441 -191,0 -314,-112 -314,-334 0,-227 171,-428 408,-428 184,0 317,116 317,321z"/>
  <path class="fil0" d="M961 322c0,-118 -80,-192 -186,-192 -45,0 -89,4 -110,7l-73 452c13,1 37,0 48,0 175,0 321,-114 321,-267zm1304 -282l-147 895c-6,37 -6,51 63,51l-18 114 -120 0c81,28 131,78 131,141 0,120 -118,216 -427,216 -571,0 -949,-296 -1078,-735l-101 4 -44 276c-8,53 -7,70 87,76l65 4 -26 135c-93,-6 -197,-11 -299,-10 -94,0 -192,5 -285,10l22 -135c24,-1 41,-1 57,-3 16,-1 29,-4 43,-9 26,-8 47,-25 53,-59l141 -843c-48,9 -89,21 -116,32 -31,12 -66,43 -66,66 0,10 2,17 6,23 5,9 12,16 12,26 0,8 -3,12 -7,18 -20,25 -66,44 -109,44 -49,0 -100,-39 -100,-101 0,-157 196,-220 323,-245 127,-25 305,-41 428,-41 291,0 502,90 502,320 0,189 -143,310 -296,362 116,364 401,637 767,637 139,0 188,-59 188,-117 0,-60 -47,-92 -91,-92l-57 0 22 -114c41,0 86,-4 92,-45l104 -645c2,-12 -3,-16 -15,-16l-97 0 19 -103 364 -148 12 12z"/>
 </g>
</svg>
