<?xml version="1.0" encoding="UTF-8" standalone="no"?>
<svg
   xmlns:svg="http://www.w3.org/2000/svg"
   xmlns="http://www.w3.org/2000/svg"
   xmlns:sodipodi="http://sodipodi.sourceforge.net/DTD/sodipodi-0.dtd"
   xmlns:inkscape="http://www.inkscape.org/namespaces/inkscape"
   version="1.1"
   id="svg82"
   width="1767.7644"
   height="195.77361"
   viewBox="0 0 1767.7644 195.77361"
   sodipodi:docname="sourdoreille.svg"
   inkscape:version="1.1-dev (48d18c81, 2020-07-08)">
  <defs
     id="defs86" />
  <sodipodi:namedview
     pagecolor="#ffffff"
     bordercolor="#666666"
     borderopacity="1"
     objecttolerance="10"
     gridtolerance="10"
     guidetolerance="10"
     inkscape:pageopacity="0"
     inkscape:pageshadow="2"
     inkscape:window-width="1434"
     inkscape:window-height="855"
     id="namedview84"
     showgrid="false"
     inkscape:zoom="0.3640191"
     inkscape:cx="940.8847"
     inkscape:cy="45.327292"
     inkscape:window-x="0"
     inkscape:window-y="23"
     inkscape:window-maximized="1"
     inkscape:current-layer="g88"
     fit-margin-top="0"
     fit-margin-left="0"
     fit-margin-right="0"
     fit-margin-bottom="0"
     height="187.77361px" />
  <g
     inkscape:groupmode="layer"
     inkscape:label="Image"
     id="g88"
     transform="translate(-744.23558,-214.0244)">
    <path
       style="fill:#ffffff;stroke-width:1.33333"
       d="m 1148.9138,406.42023 c -22.3391,-4.85035 -37.1017,-16.43355 -46.8534,-36.76265 -7.731,-16.11639 -8.4799,-23.60112 -8.4799,-84.74612 v -54.54938 h 6.6666 6.6667 l 0.023,55 c 0.018,42.8583 0.4494,57.01179 1.954,64.11306 6.3012,29.73992 26.2768,46.22028 56.0228,46.22028 22.2541,0 40.2036,-10.1938 49.3031,-28 7.7724,-15.20932 7.8491,-15.93226 8.3809,-79 l 0.4919,-58.33334 h 6.7093 6.7093 l -0.6286,57 c -0.689,62.47403 -1.2167,67.42974 -8.8936,83.51507 -11.0182,23.08653 -30.8166,35.29912 -58.739,36.23289 -7.7,0.2575 -16.4,-0.0529 -19.3333,-0.68981 z m -346.31554,-1.34356 c -8.5225,-1.55875 -18.9506,-5.05497 -27.0178,-9.05828 -7.5556,-3.7494 -21.508,-13.38387 -24.98403,-17.25212 -2.2244,-2.47539 -2.1356,-2.75491 2.21513,-6.9718 l 4.5325,-4.39301 8.2355,6.85368 c 29.7324,24.7436 73.4795,27.01334 93.0098,4.82566 10.3269,-11.73196 10.9338,-27.95012 1.4502,-38.7514 -6.1227,-6.97337 -17.9248,-11.8296 -44.6598,-18.3763 -29.6961,-7.27182 -40.9782,-12.19311 -49.6138,-21.64183 -7.3745,-8.06888 -9.5238,-14.12179 -9.5058,-26.77055 0.053,-37.28425 48.7748,-57.25121 94.567,-38.75493 9.2407,3.73248 24.0834,12.94532 24.0208,14.90963 -0.023,0.73333 -1.708,3.27865 -3.7435,5.65625 l -3.7008,4.32292 -4.5783,-3.46513 c -2.518,-1.90583 -8.7172,-5.48002 -13.776,-7.94264 -24.8575,-12.10072 -52.8432,-11.04012 -68.3677,2.59098 -8.1539,7.15954 -11.1024,13.4794 -11.0962,23.7845 0.011,18.25108 10.4364,25.56642 49.8885,35.00532 36.679,8.77544 50.8035,16.73033 57.5831,32.43077 3.2921,7.62384 3.0381,24.71947 -0.4843,32.59481 -5.9234,13.24358 -16.4518,22.46851 -31.659,27.73948 -9.0661,3.14242 -31.8553,4.57711 -42.3155,2.66399 z m 166.3155,-1.93527 c -18.1624,-4.20653 -29.2501,-10.14098 -41.6255,-22.27913 -17.6549,-17.31648 -26.9949,-40.32488 -26.9949,-66.50019 0,-40.40089 23.3464,-74.37985 59.2871,-86.2881 9.2034,-3.04936 14.29709,-4.23961 27.99061,-4.62348 12.65213,0.30059 16.99653,1.34534 27.40163,5.03342 14.4381,5.11758 24.333,11.69087 35.0932,23.31296 15.9828,17.26286 22.7892,35.94912 22.7892,62.5652 0,11.7827 -0.6909,19.20634 -2.3578,25.33334 -7.9342,29.164 -30.1855,52.86636 -57.5835,61.33856 -11.942,3.6928 -32.83444,4.69346 -44.00004,2.10742 z m 35.20924,-12.16569 c 31.3277,-7.38445 53.923,-36.25952 55.7306,-71.21947 2.7663,-53.50038 -41.2371,-93.5373 -90.13564,-82.0109 -33.1009,7.80254 -56.1375,38.96952 -56.1375,75.95008 0,51.6289 43.1436,88.45302 90.54254,77.28029 z m 250.7908,-73.387 v -87.44005 l 45.6667,0.4844 c 43.3938,0.46029 46.098,0.63526 54.3333,3.51552 16.9947,5.94376 28.7147,16.86045 32.8488,30.59705 2.762,9.17716 2.3352,25.46719 -0.8932,34.09589 -5.3803,14.38002 -20.5959,26.12044 -39.2672,30.29892 -4.0453,0.9053 -7.3551,1.9126 -7.3551,2.23847 0,0.4372 43.3532,58.54095 53.7092,71.98317 0.995,1.29139 -0.542,1.66667 -6.8254,1.66667 h -8.1095 l -27.7204,-36.65879 -27.7205,-36.6588 -27.6667,-0.008 -27.6667,-0.008 v 36.66692 36.66667 h -6.6666 -6.6667 z m 85.838,0.69048 c 16.3919,-3.0302 29.2751,-12.07051 33.7585,-23.68897 2.912,-7.54604 2.9487,-21.49274 0.075,-28.32511 -4.8143,-11.44396 -16.4344,-19.53148 -32.2492,-22.44533 -4.3585,-0.803 -22.7727,-1.4577 -41.0002,-1.4577 h -33.0885 v 38.66667 38.66667 h 32.4218 c 17.832,0 35.8693,-0.6373 40.0829,-1.41623 z m 74.162,-0.58377 v -87.57636 l 38.3333,0.60165 c 31.0339,0.48707 39.8475,1.04009 46.2852,2.90424 26.0267,7.5364 45.9643,23.49149 56.7371,45.4038 5.8752,11.95069 8.3644,23.45713 8.3644,38.66667 0,15.20953 -2.4892,26.71597 -8.3644,38.66666 -10.7728,21.91231 -30.7104,37.8674 -56.7371,45.4038 -6.4377,1.86415 -15.2513,2.41718 -46.2852,2.90424 l -38.3333,0.60166 z m 76.6284,73.31808 c 22.6186,-4.79124 43.496,-20.57959 52.6364,-39.80587 8.6792,-18.25601 9.7286,-40.60165 2.8289,-60.23252 -7.968,-22.67041 -30.1143,-41.29268 -55.4271,-46.60716 -6.4116,-1.34615 -17.7854,-1.96681 -36.3333,-1.98272 l -27,-0.0232 v 75.33339 75.33333 l 27,-0.0232 c 18.6449,-0.016 29.8764,-0.63244 36.2951,-1.99211 z m 160.0382,12.1279 c -18.1624,-4.20653 -29.2501,-10.14098 -41.6254,-22.27913 -17.655,-17.31648 -26.995,-40.32488 -26.995,-66.50019 0,-40.40089 23.3464,-74.37985 59.2871,-86.2881 9.2033,-3.04936 18.9652,-4.43641 27.3333,-4.61128 8.0122,-0.16743 17.6538,1.33314 28.059,5.02122 14.4381,5.11758 24.3329,11.69087 35.0932,23.31296 15.9828,17.26286 22.7892,35.94912 22.7892,62.5652 0,11.7827 -0.691,19.20634 -2.3579,25.33334 -7.9341,29.164 -30.1855,52.86636 -57.5835,61.33856 -11.942,3.6928 -32.8344,4.69346 -44,2.10742 z m 35.2092,-12.16569 c 31.3278,-7.38445 53.923,-36.25952 55.7307,-71.21947 2.7663,-53.50038 -41.2372,-93.5373 -90.1357,-82.0109 -33.1008,7.80254 -56.1375,38.96952 -56.1375,75.95008 0,51.6289 43.1436,88.45302 90.5425,77.28029 z m 89.4575,-73.387 v -87.44005 l 45.6667,0.4844 c 43.3938,0.46029 46.098,0.63526 54.3333,3.51552 16.9947,5.94376 28.7147,16.86045 32.8488,30.59705 2.762,9.17716 2.3352,25.46719 -0.8932,34.09589 -5.3803,14.38002 -20.5959,26.12044 -39.2672,30.29892 -4.0453,0.9053 -7.3551,1.9126 -7.3551,2.23847 0,0.4372 43.3532,58.54095 53.7092,71.98317 0.995,1.29139 -0.542,1.66667 -6.8254,1.66667 h -8.1095 l -27.7204,-36.65879 -27.7205,-36.6588 -27.6667,-0.008 -27.6667,-0.008 v 36.66692 36.66667 h -6.6666 -6.6667 z m 85.838,0.69048 c 16.3919,-3.0302 29.2751,-12.07051 33.7585,-23.68897 2.912,-7.54604 2.9487,-21.49274 0.075,-28.32511 -4.8143,-11.44396 -16.4344,-19.53148 -32.2492,-22.44533 -4.3585,-0.803 -22.7727,-1.4577 -41.0003,-1.4577 h -33.0884 v 38.66667 38.66667 h 32.4218 c 17.832,0 35.8693,-0.6373 40.0829,-1.41623 z m 72.8287,40.08289 v -46.66666 h 62.6666 62.6667 v 6 6 h -56 -56 v 34.66666 34.66667 h 56 56 v 6 6 h -62.6667 -62.6666 z m 148,-40.66666 v -87.33334 h 6.6666 6.6667 v 87.33334 87.33333 h -6.6667 -6.6666 z m 34.6666,0 v -87.33334 h 6.6667 6.6667 v 81.33334 81.33333 h 50.6666 50.6667 v 6 6 h -57.3333 -57.3334 z m 136,0 v -87.33334 h 6.6667 6.6667 v 81.33334 81.33333 h 50.6666 50.6667 v 6 6 h -57.3333 -57.3334 z m 134.6667,40.66666 v -46.66666 h 62.6667 62.6666 v 6 6 h -56 -56 v 34.66666 34.66667 h 56 56 v 6 6 h -62.6666 -62.6667 z m -453.3333,-122 v -6 h 62.6666 62.6667 v 6 6 h -62.6667 -62.6666 z m 453.3333,0 v -6 h 62.6667 62.6666 v 6 6 h -62.6666 -62.6667 z"
       id="path205"
       sodipodi:nodetypes="ccsccccsssscccsssccsssccscssscscccccccsccsssssscscscssscsssccsssssssscccccccccccscsscccsccccsssscssccssssscccsssssssssssssssssssccsssssssscccccccccccscsscccsccccccccccccccccccccccccccccccccccccccccccccccccccccccccccccccccccccccccccccccccccccccccc" />
    <path
       style="fill:#000000;fill-opacity:0.054902;stroke-width:0.97125"
       d=""
       id="path180"
       transform="translate(744.23558,214.0244)" />
  </g>
  <g
     inkscape:groupmode="layer"
     id="layer2"
     inkscape:label="Image 1" />
</svg>
