<?xml version="1.0" encoding="UTF-8"?>
<svg width="164px" height="59px" viewBox="0 0 164 59" version="1.1" xmlns="http://www.w3.org/2000/svg" xmlns:xlink="http://www.w3.org/1999/xlink">

    <g id="Logo">
        <polygon id="Apostrophe" fill="#E10719" points="158.837295 18.8701553 163.976432 18.8701553 163.976432 0.0101778977 158.837295 0.0101778977"></polygon>
        <g id="Télérama" fill="#fff">
            <path d="M136.465581,49.0567302 L136.465581,43.8186116 C136.465581,36.8318335 139.319373,33.756944 145.843976,33.756944 L148.618764,33.756944 L148.618764,24.606937 C148.618764,20.6164571 147.965533,18.8697627 145.354535,18.8697627 C142.745464,18.8697627 142.092233,20.6989783 142.092233,24.6914228 L142.092233,27.1965245 L137.118812,27.1965245 L137.118812,24.6914228 C137.118812,18.0386584 139.564093,14.4627484 145.354535,14.4627484 C151.636345,14.4627484 153.675043,18.1211793 153.675043,24.606937 L153.675043,58.4543002 L148.618764,58.4543002 L148.618764,55.2104391 C147.884601,57.1241402 146.578139,58.9533557 143.153974,58.9533557 C138.504279,58.9533557 136.465581,55.9590223 136.465581,49.0567302 M148.618764,49.306257 L148.618764,37.4978953 L146.088697,37.4978953 C142.745464,37.4978953 141.52186,39.7436452 141.52186,43.9011317 L141.52186,49.0567293 C141.52186,53.7152359 142.500743,54.9628749 144.86702,54.9628749 C147.312302,54.9628749 148.618764,53.3812225 148.618764,49.306257" id="a"></path>
            <path d="M103.919636,14.961018 L108.977842,14.961018 L108.977842,18.9534624 C109.873867,16.3756637 111.586913,14.4619624 114.849215,14.4619624 C117.947728,14.4619624 119.660774,15.8766082 120.477794,19.1185043 C121.61854,16.1261358 123.657238,14.4619624 126.91954,14.4619624 C131.243583,14.4619624 133.118492,17.4562957 133.118492,23.942053 L133.118492,58.4554773 L128.143144,58.4554773 L128.143144,24.0265388 C128.143144,20.4486642 127.489913,18.8689766 125.044632,18.8689766 C122.269844,18.8689766 121.048167,20.8651988 121.048167,24.4411085 L121.048167,58.4554773 L115.989961,58.4554773 L115.989961,24.0265388 C115.989961,20.3661432 115.338657,18.8689766 112.891449,18.8689766 C110.118588,18.8689766 108.977842,20.9496845 108.977842,24.4411085 L108.977842,58.4554773 L103.919636,58.4554773 L103.919636,14.961018 Z" id="m"></path>
            <path d="M82.6848043,49.0567302 L82.6848043,43.8186116 C82.6848043,36.8318335 85.538596,33.756944 92.0631998,33.756944 L94.8379871,33.756944 L94.8379871,24.606937 C94.8379871,20.6164571 94.1847559,18.8697627 91.5737582,18.8697627 C88.9646874,18.8697627 88.3114562,20.6989783 88.3114562,24.6914228 L88.3114562,27.1965245 L83.3380355,27.1965245 L83.3380355,24.6914228 C83.3380355,18.0386584 85.7833167,14.4627484 91.5737582,14.4627484 C97.8555682,14.4627484 99.8942661,18.1211793 99.8942661,24.606937 L99.8942661,58.4543002 L94.8379871,58.4543002 L94.8379871,55.2104391 C94.1038246,57.1241402 92.7973622,58.9533557 89.3731978,58.9533557 C84.7235022,58.9533557 82.6848043,55.9590223 82.6848043,49.0567302 M94.837987,49.306257 L94.837987,37.4978953 L92.3079207,37.4978953 C88.9646874,37.4978953 87.7410834,39.7436452 87.7410834,43.9011317 L87.7410834,49.0567293 C87.7410834,53.7152359 88.7199666,54.9628749 91.0862435,54.9628749 C93.5315247,54.9628749 94.837987,53.3812225 94.837987,49.306257" id="a"></path>
            <path d="M69.4274883,14.9610176 L74.4837674,14.9610176 L74.4837674,19.3699968 C75.7073716,16.1261355 77.909859,14.7959756 81.5806715,14.7114898 L81.5806715,19.5350387 C76.9309758,19.7845666 74.4837674,21.1972475 74.4837674,25.6887476 L74.4837674,58.4554791 L69.4274883,58.4554791 L69.4274883,14.9610176 Z" id="r"></path>
            <path d="M47.7109258,48.3081466 L47.7109258,25.1904781 C47.7109258,17.8716514 51.2179486,14.4627482 56.6827379,14.4627482 C62.3093899,14.4627482 65.4098292,17.3725959 65.4098292,25.1079572 L65.4098292,37.3308889 L52.7672048,37.3308889 L52.7672048,48.3081466 C52.7672048,52.6326399 53.8289462,54.7113833 56.6827379,54.7113833 C59.4555982,54.7113833 60.4344815,52.7996467 60.4344815,48.5576745 L60.4344815,45.1448417 L65.4098292,45.1448417 L65.4098292,48.3906676 C65.4098292,56.4600425 62.4731794,58.9533555 56.6827379,58.9533555 C51.2179486,58.9533555 47.7109258,55.7114591 47.7109258,48.3081466 L47.7109258,48.3081466 Z M52.7672048,33.2559237 L60.2706919,33.2559237 L60.2706919,25.1079578 C60.2706919,20.36693 59.3746669,18.7047213 56.6827379,18.7047213 C53.6651568,18.7047213 52.7672048,20.9485065 52.7672048,25.1904787 L52.7672048,33.2559237 Z M54.4397851,10.4722683 L56.9274588,0.00978494032 L63.0435521,0.00978494032 L58.3803682,10.4722683 L54.4397851,10.4722683 Z" id="é"></path>
            <polygon id="l" points="38.5579827 58.4546911 43.69712 58.4546911 43.69712 0.0101778977 38.5579827 0.0101778977"></polygon>
            <path d="M16.8414166,48.3081466 L16.8414166,25.1904781 C16.8414166,17.8716514 20.3484394,14.4627482 25.8132287,14.4627482 C31.4398807,14.4627482 34.5403201,17.3725959 34.5403201,25.1079572 L34.5403201,37.3308889 L21.8976956,37.3308889 L21.8976956,48.3081466 C21.8976956,52.6326399 22.9575103,54.7113833 25.8132287,54.7113833 C28.5860891,54.7113833 29.5649723,52.7996467 29.5649723,48.5576745 L29.5649723,45.1448417 L34.5403201,45.1448417 L34.5403201,48.3906676 C34.5403201,56.4600425 31.6036702,58.9533555 25.8132287,58.9533555 C20.3484394,58.9533555 16.8414166,55.7114591 16.8414166,48.3081466 L16.8414166,48.3081466 Z M21.8976957,33.2559237 L29.4011828,33.2559237 L29.4011828,25.1079578 C29.4011828,20.36693 28.5051578,18.7047213 25.8132287,18.7047213 C22.7956476,18.7047213 21.8976957,20.9485065 21.8976957,25.1904787 L21.8976957,33.2559237 Z M23.5702759,10.4722683 L26.0579497,0.00978494032 L32.1740429,0.00978494032 L27.510859,10.4722683 L23.5702759,10.4722683 Z" id="é"></path>
            <polygon id="T" points="0 0.00998141989 0 4.47593914 7.70581558 4.47593914 7.70581558 58.4544946 12.8449529 58.4544946 12.8449529 4.47593914 20.5488415 4.47593914 20.5488415 0.00998141989"></polygon>
        </g>
    </g>
</svg>