<?xml version="1.0" encoding="UTF-8" standalone="no"?>
<svg
   xmlns:svg="http://www.w3.org/2000/svg"
   xmlns="http://www.w3.org/2000/svg"
   xmlns:xlink="http://www.w3.org/1999/xlink"
   viewBox="0 0 1046.8218 264.00189"
   height="264.00189"
   width="1046.8218"
   id="svg925"
   version="1.1">
  <g
     transform="translate(-199.29963,-398.93326)"
     id="layer2">
    <rect
      y="495.5473"
      x="982.93134"
      height="3.5250502"
      width="10.76066"
      id="rect1096"
      fill="#fff" />
    <path
      fill="#fff"
      d="m 203.58293,663.68516 c -0.26168,-0.6875 -0.36006,-59.525 -0.21862,-130.75 l 0.25717,-129.5 522.25,-0.25095 522.24992,-0.25095 V 533.93421 664.93516 H 726.0901 c -416.70469,0 -522.12739,-0.2522 -522.50717,-1.25 z m 1027.53847,-129.75 v -114 h -505.49992 -505.5 v 114 114 h 505.5 505.49992 z m -901.08397,46.6929 29.79898,-48.09762 c 0,0 -6.16942,-11.42439 -13.10538,-22.38323 -6.93193,-10.95248 -14.41753,-22.04782 -13.87977,-22.04232 l 7.72951,-0.0365 6.4593,0.0176 4.34662,6.67462 c 2.39063,3.67103 7.2907,11.53366 7.2907,11.53366 l 9.2764,13.14095 10.93964,-15.5 9.85461,-15.85991 6.62899,0.0642 6.9754,7.6e-4 -6.98095,12.20585 c 0,0 -19.25,30.42468 -19.25,32.09316 0,1.63983 29.88559,48.18877 29.88559,48.18877 h -8.38777 l -7.49782,-0.0705 -12.49997,-21.40315 -9.55097,-14.08135 -9.11128,13.36211 -7.88894,12.25 -5.87529,9.94285 -6.52828,0.11547 c -9.20669,-0.11547 -8.62932,-0.11547 -8.62932,-0.11547 z M 490.23294,533.01139 V 488.0753 h 5.88854 6.45457 v 39.85986 l 0.0454,39.5 26.25,0.13448 h 26.25 v 6.3341 6.7317 l -31.75831,0.0679 -33.1302,-0.0753 c -0.30759,-18.02965 -0.0738,-32.67327 0,-47.61667 z m 146.41768,47.61667 -0.28994,-47.6929 0.2608,-44.5 16.38662,-0.27543 c 16.93455,-0.28463 24.76419,0.56683 30.57706,3.32522 5.27302,2.50221 11.50284,9.35431 14.78338,16.26005 2.7464,5.78135 2.96141,6.99668 2.56706,14.51006 -0.54905,10.46072 -5.96394,18.07187 -11.81412,23.58281 -1.41214,1.33025 -5.45442,4.97223 -5.39871,5.56617 0.0557,0.59394 8.37598,13.5555 8.37598,13.5555 l 10.03579,15.66852 -7.01384,-0.13929 -7.03762,0.13929 -9.95669,-14.97533 -8.20933,-12.24991 h -10.99039 l -10.30519,0.0323 -0.0657,13.39223 0.041,13.81784 h -6.17773 z m 40.23933,-41.24063 c 8.35484,-3.49087 12.65531,-10.5881 12.03989,-19.86986 -0.54723,-8.25324 -4.14127,-13.64851 -11.36992,-17.06821 -4.6612,-2.2051 -6.64998,-1.95761 -16.17651,-1.95761 -7.11484,0 -12.04678,-0.46809 -12.06193,0.64341 l -0.53333,39.13333 c -0.0274,2.01148 24.30578,0.70502 28.1018,-0.88106 z m 118.03474,39.20333 c -8.98636,-2.52441 -16.46313,-9.2399 -19.37646,-17.40357 -0.73643,-2.06362 -1.35872,-7.12057 -1.38286,-11.23768 -0.0365,-6.22745 0.41616,-8.39491 2.69315,-12.89531 1.50538,-2.97532 3.98038,-6.32891 5.5,-7.45241 3.37436,-2.49477 3.3865,-2.92108 0.25877,-9.08611 -6.48774,-12.78794 1.21387,-28.71766 15.29785,-31.64148 19.40882,-4.02926 33.31064,15.11684 24.20894,33.34133 l -2.14303,4.29097 3.73543,3.96072 c 5.5906,5.92779 7.8509,11.67653 7.8509,19.96794 0,8.20187 -2.2843,14.10159 -7.8416,20.25286 -6.4956,7.18987 -19.06313,10.63828 -28.80109,7.90274 z m 15.22683,-12.9056 c 5.38689,-2.72138 9.05524,-6.75034 9.43037,-13.33456 -0.20475,-12.83371 -7.71036,-18.28351 -16.20716,-18.41544 -10.82263,0 -17.25325,6.37949 -17.25325,17.11608 0,6.5497 2.62803,10.99158 8.54275,14.43889 5.07544,2.95814 9.89757,3.01887 15.48729,0.19503 z m 3.66198,-55.67764 c -0.077,-7.25751 -6.99937,-9.68299 -11.27485,-9.67725 -4.54713,0.006 -10.41717,3.5548 -10.41717,9.80546 0,6.60854 4.61856,10.87734 10.93135,10.96523 6.53544,-0.12554 10.76926,-4.37621 10.76067,-11.09344 z m 94.97468,69.26097 c -0.3667,-0.36666 -0.6667,-21.1003 -0.6667,-46.07474 v -45.40808 l 20.3553,0.43896 20.3552,0.43897 6.2286,3.31978 c 11.0464,5.88769 17.487,16.33871 17.5338,28.45178 0.015,3.85 -0.6139,8.575 -1.3974,10.5 -2.6136,6.42176 -7.9072,13.49223 -11.9863,16.00957 -2.2195,1.36974 -4.0475,3.08507 -4.0623,3.81185 -0.029,1.44512 7.0048,12.84246 13.7395,22.26171 4.8758,6.81933 4.6384,7.1878 -4.33,6.72089 l -5.8396,-0.30402 -8.8061,-13.25 -8.8062,-13.25 h -10.4922 c -10.188,0 -10.4949,0.0652 -10.5807,2.25 -0.049,1.2375 -0.012,6.92582 0.081,12.64071 0.126,7.71053 -0.1736,10.60841 -1.1616,11.23469 -1.584,1.0042 -9.2123,1.16024 -10.1646,0.20793 z m 39.633,-39.94528 c 12.2113,-6.15065 15.9144,-20.68542 7.9353,-31.14658 -1.4908,-1.95462 -4.9661,-4.60417 -7.7228,-5.88789 -4.3058,-2.00511 -6.5893,-2.33542 -16.2032,-2.34381 -7.2494,-0.006 -11.4369,0.38818 -11.8893,1.12011 -0.7592,1.2284 -1.3049,35.26259 -0.6113,38.12012 0.3763,1.55005 1.8454,1.75 12.8579,1.75 9.4451,0 13.2021,-0.38739 15.6334,-1.61195 z m 134.03802,13.44528 v -12.98151 l -13.2386,0.0173 -12.8609,-0.0158 -0.02,-2.60339 v -6.01541 l 10e-5,-3.23459 h 12.8906 13.1684 l -0.1559,-9.25 c 0,0 0.1454,-15.75408 0.2158,-17.95408 h 11.6883 l -0.025,14.20415 v 13 h 13 l 13.3096,0.037 v 11.81478 l -13.0845,-0.073 -13.1991,0.073 v 12.93048 13.69693 h -5.8578 -5.8305 z"
      id="path1000-9" />
  </g>
</svg>
