<?xml version="1.0" encoding="UTF-8" standalone="no"?>
<svg width="36" height="36" viewBox="0 0 45 45" xmlns:dc="http://purl.org/dc/elements/1.1/" xmlns:cc="http://web.resource.org/cc/" xmlns:rdf="http://www.w3.org/1999/02/22-rdf-syntax-ns#" xmlns:svg="http://www.w3.org/2000/svg" xmlns="http://www.w3.org/2000/svg">
  <circle fill="red" cx="22.5" cy="22.5" r="22.5"></circle>
  <path
    id="lozenge-path-YouTubeCircleIcon-youtube-circle-icon"
    fill="#fff"
    d="M37.12,16a3.71,3.71,0,0,0-2.61-2.61C32.2,12.73,23,12.73,23,12.73s-9.24,0-11.55.62A3.71,3.71,0,0,0,8.79,16a38.56,38.56,0,0,0-.62,7.11,38.56,38.56,0,0,0,.62,7.11,3.71,3.71,0,0,0,2.61,2.61c2.31.62,11.55.62,11.55.62s9.24,0,11.55-.62a3.71,3.71,0,0,0,2.61-2.61,38.56,38.56,0,0,0,.62-7.11A38.56,38.56,0,0,0,37.12,16Z"
    transform="translate(0 -0.58)"
  />
  <polygon
    id="play-polygon-YouTubeCircleIcon-youtube-circle-icon"
    fill="red"
    points="20 26.93 27.68 22.5 20 18.07 20 26.93"
  ></polygon>
</svg>