<?xml version="1.0" encoding="UTF-8" standalone="no"?>
<svg class="xtext-text-90 xstroke-text-90 xblock xmx-auto animate--fade-in-onload xmax-w-[240px] xw-full" viewBox="0 0 1850 371" fill="none" xmlns="http://www.w3.org/2000/svg">
                            <g clip-path="url(#clip0_597_139)">
                            <path d="M1245.7 319.709C1342 277.262 1403.41 217.559 1403.41 133.105C1403.41 91.9826 1393.69 81.3734 1393.69 57.9361C1393.69 29.1889 1413.56 15.4884 1435.65 15.4884C1459.07 15.4884 1475.41 35.8344 1475.41 57.4945C1475.41 82.2566 1460.83 108.785 1444.49 135.766C1421.51 172.914 1398.98 210.935 1398.98 244.54C1398.98 285.221 1428.58 303.79 1459.95 303.79C1497.5 303.79 1542.99 284.338 1562.88 198.99V267.977C1562.88 281.247 1552.72 294.506 1532.39 296.283V301.151H1613.23V295.841C1593.36 294.075 1582.75 281.247 1582.75 265.769C1582.75 247.201 1605.28 231.723 1622.51 231.723C1647.24 231.723 1670.22 253.835 1670.22 294.517C1670.22 352 1623.83 359.518 1573.03 359.518C1545.21 359.518 1473.2 344.041 1431.67 331.213C1379.1 314.852 1344.21 302.907 1312.84 302.907C1284.12 302.907 1270.44 310.425 1245.7 319.709ZM1720.13 127.354L1738.24 145.923L1755.46 126.912L1738.24 108.785L1720.13 127.354ZM1262.93 126.471L1281.03 107.902L1298.26 126.029L1281.03 145.04L1262.93 126.471ZM585.298 126.471L603.407 107.902L620.633 126.029L603.407 145.04L585.298 126.471ZM98.9467 126.471L117.055 107.902L134.282 126.029L117.055 145.04L98.9467 126.471ZM1618.08 125.146C1618.08 200.315 1678.61 239.23 1738.24 239.23C1797.87 239.23 1850 192.797 1850 124.704C1850 66.7789 1817.75 27.864 1783.74 11.9448L1781.98 14.5944C1815.55 31.3969 1842.05 72.0782 1842.05 123.369C1842.05 182.619 1797.88 228.61 1741.78 228.61C1688.77 228.61 1639.29 188.812 1639.29 109.216C1639.29 45.0973 1674.63 15.9085 1706.43 15.9085C1721.89 15.9085 1737.36 23.4265 1748.4 38.9041L1658.72 76.9358L1660.05 80.4686L1774.46 38.9041C1765.18 19.0105 1743.09 6.62404 1718.35 6.62404C1673.29 6.62404 1618.08 42.8785 1618.08 125.135V125.146ZM1114.95 18.5688L1133.06 0L1150.28 18.1272L1133.06 37.1377L1114.95 18.5688ZM492.539 148.131C492.539 199.421 528.756 228.61 571.612 235.687C545.993 245.854 520.815 269.291 520.815 308.648C520.815 348.004 552.18 371 590.173 371C622.861 371 644.068 348.004 652.902 328.994L650.255 327.669C641.421 344.03 623.313 360.832 599.017 360.832C568.094 360.832 539.828 339.603 539.828 301.141C539.828 262.678 567.211 239.23 597.694 239.23C633.029 239.23 670.139 271.51 710.338 303.79C750.977 336.954 794.705 369.675 843.296 369.675C883.494 369.675 929.88 345.355 929.88 300.688C929.88 235.687 883.494 222.858 883.494 200.315C883.494 192.797 889.24 184.838 902.044 184.838C919.27 184.838 942.684 200.757 963.009 224.194C1014.69 283.886 1056.22 369.675 1131.75 369.675C1143.23 369.675 1154.29 367.909 1164.44 364.365C1211.71 351.537 1240.42 316.608 1298.29 316.608C1332.75 316.608 1371.18 331.644 1406.07 341.37C1458.65 356.406 1514.3 369.223 1559.8 369.223C1622.53 369.223 1687.46 353.745 1687.46 287.419C1687.46 250.27 1659.64 223.742 1629.16 223.742C1612.37 223.742 1591.16 233.026 1583.65 248.945L1582.77 253.814V43.3309C1582.77 26.5285 1592.05 19.8937 1613.25 16.8024V11.4924H1532.42V16.3608C1553.62 19.4521 1562.9 26.9701 1562.9 43.3309V145.481C1562.9 235.245 1516.95 294.947 1467.92 294.947C1431.7 294.947 1417.12 279.47 1417.12 256.474C1417.12 227.727 1437 187.046 1459.97 147.248C1477.2 118.059 1491.33 88.8806 1491.33 62.3414C1491.33 30.9445 1466.6 7.06564 1437.88 7.06564C1406.96 7.06564 1376.47 33.1525 1391.49 82.6766C1371.62 34.0357 1332.31 6.62404 1284.16 6.62404C1206.85 6.62404 1161.35 72.9506 1161.35 137.069C1161.35 185.268 1197.57 240.103 1265.61 240.103C1304.04 240.103 1334.96 218.432 1350.42 183.502L1347.78 182.177C1333.2 211.808 1301.83 229.935 1271.36 229.935C1217.91 229.935 1183.45 183.944 1183.45 127.343C1183.45 67.2098 1213.05 15.0253 1277.99 15.0253C1346.45 15.0253 1381.8 73.8338 1381.8 143.704C1381.8 242.311 1271.36 294.495 1240.44 313.947L1208.63 333.399C1218.35 320.571 1224.09 304.652 1224.09 287.408C1224.09 249.376 1194.94 223.731 1164.46 223.731C1147.68 223.731 1126.47 235.223 1118.96 250.259L1118.52 252.909V91.5302C1118.52 74.7278 1129.12 67.2098 1149 65.4433V60.1333H1068.16V65.0017C1088.49 66.7682 1098.65 74.7278 1098.65 91.5302V267.967C1098.65 281.236 1088.49 294.495 1068.16 296.272V301.141H1149V295.831C1129.13 294.064 1118.52 281.236 1118.52 265.759V264.434C1121.61 245.865 1139.73 231.712 1157.84 231.712C1182.57 231.712 1205.99 253.825 1205.99 294.506C1205.99 342.705 1164.9 361.716 1144.58 361.716C1078.76 361.716 1029.73 273.277 982.021 214.91C956.844 183.513 937.853 171.579 922.832 171.579C910.91 171.579 902.959 176.006 897.213 181.305L1011.14 28.7472V229.935H1061.49V224.625C1037.2 221.092 1031.01 211.797 1031.01 194.111V11.4924H913.062V15.9192L942.662 17.244C969.605 18.5688 990.812 20.7769 990.812 33.6049C990.812 38.4733 988.165 44.2141 982.419 51.7321L872.422 199.863C818.527 158.74 746.964 109.657 746.964 60.5749C746.964 27.8533 769.495 17.244 797.319 17.244C841.488 17.244 862.255 42.8893 889.197 92.4134L893.167 90.2054L863.126 20.3353C852.087 14.1421 833.085 7.94885 811.447 7.94885C758.434 7.94885 728.403 33.5941 728.403 70.7426C728.403 125.135 799.084 172.893 858.715 217.99L823.38 265.748C813.663 278.576 802.613 292.276 776.112 295.82V301.13H861.813V296.261C833.096 293.17 820.733 285.652 831.331 270.616L865.343 222.859C898.913 249.829 917.463 279.017 917.463 303.779C917.463 335.176 893.167 359.497 854.292 359.497C810.565 359.497 768.15 325.009 728.834 292.287C690.841 260.449 660.81 239.661 629.446 232.595C674.949 219.767 714.265 183.513 714.265 123.369C714.265 46.8745 648.889 8.84282 597.199 8.84282C556.118 8.84282 473.515 22.554 429.336 109.657L321.555 322.348V108.333C328.183 109.657 335.694 111.424 343.204 111.424C382.52 111.424 411.668 87.9866 411.668 53.0569C411.668 24.7513 391.343 9.28442 365.283 9.28442C337.006 9.28442 323.32 27.8533 316.251 48.1993L320.221 49.5241C327.731 28.2949 340.546 15.9192 360.861 15.9192C383.392 15.9192 394.431 31.8385 394.431 55.2757C394.431 78.713 382.95 103.033 352.909 103.033C295.926 103.033 230.549 5.7516 134.249 5.7516C53.8956 5.7516 0 57.4837 0 137.963C0 206.056 60.0717 240.555 112.203 240.555C150.637 240.555 181.56 218.884 197.022 183.954L194.375 182.63C179.796 212.26 148.431 230.387 117.959 230.387C73.7904 230.387 21.2182 198.549 21.2182 126.912C21.2075 47.7577 67.582 14.5944 122.801 14.5944C174.48 14.5944 251.348 71.1949 295.517 99.9422L163.441 331.213C155.93 344.482 142.674 356.858 120.154 359.96V365.27H203.639V360.402C179.344 357.31 163.441 351.117 172.716 334.756L301.704 108.354V365.27H310.537L445.712 99.953C444.83 107.913 443.506 107.471 443.506 138.426V333.873C443.506 350.676 433.349 358.635 413.024 360.402V365.27H493.862V359.96C473.989 358.194 463.38 350.676 463.38 333.873V110.993C463.38 56.1589 519.922 18.1272 586.181 18.1272C643.164 18.1272 693.52 58.8085 693.52 134.42C693.52 198.096 649.792 229.052 602.966 228.61C552.169 228.169 513.294 187.929 513.294 132.653C513.294 91.0886 530.962 63.2246 567.631 47.3053L566.749 44.6557C521.246 59.2501 492.539 103.023 492.539 148.131ZM1065.92 18.5688L1084.02 0L1101.25 18.1272L1084.02 37.1377L1065.92 18.5688Z" fill="#303030"></path>
                            </g>
                            <defs>
                            <clipPath id="clip0_597_139">
                            <rect width="1850" height="371" fill="white"></rect>
                            </clipPath>
                            </defs>
                        </svg>