<?xml version="1.0" encoding="UTF-8" standalone="no"?>
<svg
   xmlns:dc="http://purl.org/dc/elements/1.1/"
   xmlns:cc="http://creativecommons.org/ns#"
   xmlns:rdf="http://www.w3.org/1999/02/22-rdf-syntax-ns#"
   xmlns:svg="http://www.w3.org/2000/svg"
   xmlns="http://www.w3.org/2000/svg"
   xmlns:sodipodi="http://sodipodi.sourceforge.net/DTD/sodipodi-0.dtd"
   xmlns:inkscape="http://www.inkscape.org/namespaces/inkscape"
   viewBox="0 0 914.58 210.82"
   version="1.1"
   id="svg8">
      <path
         fill="#000"
         d="m 111,148 c -0.1866,0.12086 -0.39896,0.19621 -0.62,0.22 C 86.3,109.86 62.356667,71.643333 38.55,33.57 H 0 v 173 H 36 V 91.87 c 0.204291,-0.09982 0.424108,-0.164075 0.65,-0.19 24.07,38.37 48,76.88 72,114.88 H 148 v -173 H 111 Z M 500.41,83.74 c -6.2,-3.38 -12.88,-4.67 -19.84,-5.9 -9.43,-1.67 -17.84,0.19 -26.35,3.53 -7.29,2.86 -12.91,7.78 -17.84,13.68 -0.7735,0.696986 -1.63806,1.285698 -2.57,1.75 -5.39,-10.24 -13.59,-16.09 -24.06,-18.2 -6.49,-1.31 -13.06,-2 -20,-0.64 -8.6,1.73 -16.26,4.58 -22.68,10.5 -2.72,2.51 -5.29,5.32 -7.86,8 -0.35674,-0.237427 -0.77184,-0.372332 -1.2,-0.39 V 80.57 H 326 v 126 h 34.18 v -4.94 c 0,-23.87 -0.07,-47.67 0.24,-71.54 0.0698,-6.25383 2.299,-12.29133 6.31,-17.09 5.21,-6.27 12.17,-7.81 20.16,-7.73 9.05697,0.19869 16.42106,7.36198 16.87,16.41 0.12,4.38 0.38,8.76 0.38,13.13 v 66.51 c 0.0551,1.77174 0.26595,3.53519 0.63,5.27 h 35 c 0,-23 -0.13,-44.92 0.09,-67.12 0.11007,-6.08483 0.73226,-12.14958 1.86,-18.13 2.31,-12.8 17.87,-20.7 29.93,-15.23 2.93,1.33 6.07,3.44 7.73,6.07 2.7611,4.42278 4.19133,9.5466 4.12,14.76 -0.06,24.93 0,49.73 0.1,74.66 v 5 h 35.16 c 0.19,-2 0.49,-3.87 0.5,-5.75 v -75.18 c 0.10726,-7.30101 -0.90447,-14.57536 -3,-21.57 -2.64,-8.91 -7.6,-15.87 -15.85,-20.36 z m 159.26,26.08 c -10.3,-21.29 -28,-31 -50.77,-32.73 -4.63604,-0.184635 -9.27671,0.22197 -13.81,1.21 -5.65,1 -11.51,2 -16.68,4.31 -10.9791,4.752254 -20.27261,12.7007 -26.67,22.81 -5,8 -8.85,16.51 -9.78,25.63 -1.05,10.37 -1.42,20.89 1.11,31.4 2.2005,9.84633 6.64993,19.04979 13,26.89 11.44,13.91 26.93,19.8 44.25,21.09 7.09,0.53 14.34,-0.74 21.48,-1.54 3.38686,-0.34788 6.70876,-1.16573 9.87,-2.43 12.50605,-5.00288 22.71846,-14.45657 28.67,-26.54 1.92,-3.81 3.4,-7.83 5.17,-11.95 -0.76086,-0.24959 -1.53984,-0.44016 -2.33,-0.57 h -28.39 c -7.8,14.74 -21.43,18.72 -36.78,15.54 -16.21,-3.36 -20.55,-15.38 -21.53,-30.38 h 90.42 c 0.61286,-2.0734 0.98202,-4.21115 1.1,-6.37 -0.12,-3.41 -0.94,-6.75 -1.09,-10.16 -0.42,-9.32 -3.2,-17.86 -7.24,-26.21 z m -82.82,19.74 c -1.74,-11 10,-23.8 22.82,-25.19 19,-2.06 29,6.19 32.2,25.19 z m 334.87,-5.87 c -1.55,-9.82 -6.46,-18.1 -12.73,-25.55 -12.21,-14.52 -28.75,-19.83 -46.91,-21.07 -8.07,-0.55 -16,0.89 -23.95,2.83 -13.04071,3.032363 -24.57808,10.603428 -32.55,21.36 -9.36,12.41 -13.06,26.69 -12.85,43.26 -0.61313,10.54281 1.45091,21.06939 6,30.6 10.3,22.7 29.41,33.1 53.36,35.38 9.72602,0.90859 19.53536,-0.15602 28.84,-3.13 7.52083,-2.26992 14.55853,-5.90743 20.76,-10.73 16.34,-12.86 22,-30.75 22.86,-50.42 0.32,-7.46 -1.65,-15.05 -2.83,-22.53 z m -40,48.91 c -4.41,6.62 -10.92,10.1 -18.68,10.88 -6.87,0.68 -13.72,0.53 -19.87,-3.52 -6.14941,-3.8198 -10.57406,-9.87949 -12.34,-16.9 -1.4,-5.61 -3,-11.31 -3.23,-17 -0.2043,-5.7015 0.37101,-11.40419 1.71,-16.95 1.68,-7.24 4.43,-14.3 10.65,-19 7.85,-6 16.43,-7.53 26.31,-5.15 11,2.67 16.91,10.15 20.23,19.8 1.52,4.41 2,9.18 2.54,13.93 0.75596,6.1836 0.47204,12.4501 -0.84,18.54 -1.18322,5.47742 -3.37006,10.68853 -6.45,15.37 z M 260.92,87.3 c -0.09,19.64 0.14,39.28 -0.15,58.92 -0.12426,6.86045 -0.89433,13.69395 -2.3,20.41 -1.25,6 -5.22,10.63 -10.88,13.42 -7,3.45 -14.37,2.1 -21.67,1.5 -0.53,0 -1,-0.53 -1.55,-0.78 -7.4,-3.48 -9.94,-10.16 -11,-17.49 -0.50432,-4.64852 -0.68809,-9.32624 -0.55,-14 -0.05,-20.7 0,-41.42 -0.08,-62.12 -0.17873,-2.222049 -0.55352,-4.42395 -1.12,-6.58 H 177 v 6 c 0,22.81 0.15,45.63 0,68.44 -0.05,9.63 0.59,19.07 3.33,28.4 2.91,9.92 8.54,17.23 17.76,22 4.63,2.41 9.55,3.06 14.51,4.09 12.54,2.61 24.15,0.86 34.93,-5.84 5.13,-3.19 9.45,-7.5 14.45,-11.54 v 14.41 h 34 v -126 H 262 c -0.55099,2.218642 -0.91229,4.480125 -1.08,6.76 z M 745.24,82 c -8.42,3.81 -14.54,10.29 -19.31,18.31 -0.37,-0.13 -0.92,-0.26 -0.92,-0.39 V 80.57 H 691 v 126 h 34.67 c 0.17,-2 0.42,-4.06 0.44,-6 0.17,-20.23 0,-40.39 0.59,-60.61 0.31042,-8.30806 3.87737,-16.16036 9.93,-21.86 5.65,-5.56 12.65,-7.8 20.51,-7.62 4.91,0.11 9.87,0 14.87,0 V 78.61 C 762,75.06 753.64,78.24 745.24,82 Z M 647.78,30.81 c -0.36,-0.36 -0.71,-1.24 -1.07,-1.24 h -37.16 c -7.68,12 -16.21,23 -23.52,36 h 24 c 12.88,-11 25.15,-23.18 37.75,-34.76 z"
         id="path2"
      />
</svg>
