<?xml version="1.0" encoding="UTF-8"?>
<svg xmlns="http://www.w3.org/2000/svg" version="1.1" viewBox="0 0 85 29.8">
  <defs>
    <style>
      .cls-1 {
        fill: #c31333;
      }

      .cls-2 {
        fill: #222221;
      }
    </style>
  </defs>
  <!-- Generator: Adobe Illustrator 28.7.1, SVG Export Plug-In . SVG Version: 1.2.0 Build 142)  -->
  <g>
    <g id="Calque_1">
      <g id="Capa_1">
        <g>
          <path class="cls-2" d="M8.7,24.4v-11.7c0-3.7,1.8-5.4,4.6-5.4s4.5,1.5,4.5,5.4v6.2h-6.5v5.6c0,2.2.5,3.2,2,3.2s1.9-1,1.9-3.1v-1.7h2.6v1.6c0,4.1-1.5,5.3-4.5,5.3s-4.6-1.6-4.6-5.4M11.3,16.8h3.9v-4.1c0-2.4-.5-3.2-1.8-3.2s-2,1.1-2,3.3c0,0,0,4.1,0,4.1ZM12.2,5.3l1.3-5.3h3.2l-2.4,5.3h-2Z"/>
          <rect class="cls-2" x="19.9" y="0" width="2.7" height="29.6"/>
          <polygon class="cls-2" points="0 0 0 2.3 4 2.3 4 29.6 6.6 29.6 6.6 2.3 10.6 2.3 10.6 0 0 0"/>
          <path class="cls-2" d="M24.6,24.4v-11.7c0-3.7,1.8-5.4,4.6-5.4s4.5,1.5,4.5,5.4v6.2h-6.5v5.6c0,2.2.5,3.2,2,3.2s1.9-1,1.9-3.1v-1.7h2.6v1.6c0,4.1-1.5,5.3-4.5,5.3s-4.6-1.6-4.6-5.4M27.2,16.8h3.9v-4.1c0-2.4-.5-3.2-1.9-3.2s-2,1.1-2,3.3v4.1ZM28.1,5.3l1.3-5.3h3.2l-2.4,5.3h-2Z"/>
          <path class="cls-2" d="M35.8,7.6h2.6v2.2c.6-1.6,1.8-2.3,3.7-2.4v2.4c-2.4.1-3.7.8-3.7,3.1v16.6h-2.6s0-22,0-22Z"/>
          <path class="cls-2" d="M42.7,24.8v-2.6c0-3.5,1.5-5.1,4.8-5.1h1.4v-4.6c0-2-.3-2.9-1.7-2.9s-1.7.9-1.7,2.9v1.3h-2.6v-1.3c0-3.4,1.3-5.2,4.3-5.2s4.3,1.8,4.3,5.1v17.1h-2.6v-1.6c-.4,1-1.1,1.9-2.8,1.9s-3.4-1.5-3.4-5M48.9,24.9v-6h-1.3c-1.7,0-2.4,1.1-2.4,3.2v2.6c0,2.4.5,3,1.7,3s1.9-.8,1.9-2.9"/>
          <path class="cls-2" d="M53.6,7.6h2.6v2c.5-1.3,1.3-2.3,3-2.3s2.5.7,2.9,2.4c.6-1.5,1.6-2.4,3.3-2.4s3.2,1.5,3.2,4.8v17.5h-2.6V12.2c0-1.8-.3-2.6-1.6-2.6s-2.1,1-2.1,2.8v17.2h-2.6V12.2c0-1.9-.3-2.6-1.6-2.6s-2,1.1-2,2.8v17.2h-2.6V7.6Z"/>
          <path class="cls-2" d="M70.4,24.8v-2.6c0-3.5,1.5-5.1,4.8-5.1h1.4v-4.6c0-2-.3-2.9-1.7-2.9s-1.7.9-1.7,2.9v1.3h-2.6v-1.3c0-3.4,1.3-5.2,4.3-5.2s4.3,1.8,4.3,5.1v17.1h-2.6v-1.6c-.4,1-1.1,1.9-2.8,1.9s-3.4-1.5-3.4-5M76.7,24.9v-6h-1.3c-1.7,0-2.4,1.1-2.4,3.2v2.6c0,2.4.5,3,1.7,3s1.9-.8,1.9-2.9"/>
          <rect class="cls-1" x="82.8" y="0" width="2.3" height="9.3"/>
        </g>
      </g>
    </g>
  </g>
</svg>