<?xml version="1.0" encoding="UTF-8"?>
<svg xmlns="http://www.w3.org/2000/svg" id="Calque_1" data-name="Calque 1" viewBox="0 0 301.35 112.24">
  <defs>
    <style>.cls-1{fill:none;stroke:#000;stroke-miterlimit:10;stroke-width:0.5px;}.cls-2{fill:#fff;}</style>
  </defs>
  <title>logo_tsugi_10_2023</title>
  <rect x="1.41" y="103.24" width="6.79" height="6.27"></rect>
  <path d="M208.87,91.15c9.22,1.13,17.26,2.14,25.31,3.09a9.66,9.66,0,0,0,3-.07c2.79-.55,6.85.08,6.9-4,.06-4.55-4.18-3.21-6.84-3.59-3.62-.52-7.29-.73-11-.94C211,84.7,206.47,76.66,213.88,63c-7.62-6.73-8.28-15.65-7-25,1.38-9.75,7.28-15.66,17.09-16.53,4.93-.44,10,.37,14.93.25a9,9,0,0,0,5.55-1.78c5.9-5.39,11.58-11,17.16-16.76,2.17-2.23,4.21-2.74,7-1.49a51.48,51.48,0,0,1,8.87,4.44c-7,9.1-16.78,16.28-24.78,23.09.35,7.17,1.25,13.41.83,19.57-.72,10.58-6.89,16.5-17.5,17.76-2.8.34-5.7-.1-8.46.38-1.51.26-3.25-.47-2.82,2.48.14,2.25,1.1,3.34,2.55,3.54,5.27.72,10.62.82,15.93,1.2,9.1.63,13.34,4,14.42,11.52,1.36,9.37-2.32,16.53-10.59,19-11.85,3.61-23.73,2.29-35.41-1.15a4.49,4.49,0,0,1-2.73-3A80.78,80.78,0,0,1,208.87,91.15Zm30.45-47c0-4,.48-8.24-4.25-10.22-7.77-3.26-13.73.61-13.85,8.94,0,1.5,0,3,.09,4.48.18,4.38,2.54,6.57,6.84,7,8.27,1,11.16-1.59,11.16-10.12Z"></path>
  <path d="M134.36,42.9c0-5,.12-10,0-15-.12-3.5,1.36-4.58,4.75-4.64,10.08-.17,10.08-.29,10.08,9.76,0,8-.08,16,0,24,.09,6.47,3.49,9.61,10,9.6s10-3.18,10-9.65c.07-9.66.12-19.32,0-29-.06-3.45,1.19-4.64,4.64-4.71C184,23.06,184,22.93,184,32.9c0,8.16.15,16.32-.06,24.47-.28,11-5.62,18.17-15.18,21-12.21,3.57-25.38.34-30.6-8.34-2.2-3.66-3.15-8.32-3.71-12.65C133.88,52.62,134.36,47.73,134.36,42.9Z"></path>
  <path d="M68.18,63.27c6.51,1.25,12.28,2.61,18.14,3.38a28.17,28.17,0,0,0,9.86-.48c1.59-.38,3.73-2.63,3.78-4.09s-2-3.75-3.62-4.18c-5.26-1.47-10.75-2.14-16.09-3.37-9.14-2.1-12.45-6.47-12.38-15.92s4-15.23,12.79-16.19c8-.86,16.17-.08,24.25.32,4.85.24,5.87,1.94,6.31,8.1.13,1.9,0,3.86,0,6-6.29-1-11.77-2.07-17.29-2.68a26.84,26.84,0,0,0-8.9.42c-1.49.35-3.6,2.35-3.6,3.62s2,3.43,3.45,3.81C90.13,43.43,95.64,44,101,45.27c10,2.43,12.73,6.44,12.51,17.26-.19,8.93-4.47,15-13.32,15.89a109.21,109.21,0,0,1-24.7-.65c-7.3-.94-7.31-1.76-7.27-9.21C68.19,66.95,68.18,65.33,68.18,63.27Z"></path>
  <path d="M22.88,108.88l-.83,1.38L19.5,108,17,110.3l-.81-1.23a4.07,4.07,0,0,0,2.62-4h1.27C20,107,21,108.15,22.88,108.88Z"></path>
  <path d="M20.4,106.15l.76-1.26a2.6,2.6,0,0,0-3.58,1.45l-.93-.85,1.91-3.07,1.11.2-.19.87h2.11c.89,0,1.27.57.94,1.37s-.62,1.27-1,2Z"></path>
  <path d="M15.71,109.32l-.9-1.11,1.92-2.2.84,1Z"></path>
  <path d="M15,103.31l1-.71L17.36,104l-1,.86Z"></path>
  <line class="cls-1" x1="26.31" y1="100.8" x2="26.31" y2="112.24"></line>
  <line class="cls-1" x1="12.62" y1="100.8" x2="12.62" y2="112.24"></line>
  <polygon class="cls-2" points="3.32 106.28 3.32 104.3 5.04 105.29 6.75 106.28 5.04 107.27 3.32 108.26 3.32 106.28"></polygon>
  <path class="cls-2" d="M30.81-209.85"></path>
  <path d="M47.19,62.35s-16.42,7.29-20.67,0v-28H44.75l.31-11.85H26.52V.95H11.93V22.3L0,22.07V34.46l11.93.23V64.78s4.86,26.14,35.26,9.12"></path>
  <circle cx="293.56" cy="7.6" r="7.6"></circle>
  <path d="M286.31,22h14.87l.15,50.27s.85,7-7.51,7.81c0,0-6.63-.83-7-6S286.31,22,286.31,22Z"></path>
  <path d="M33.1,110.13H31.69l1-7.75h1.77l1.63,5.26,1.6-5.3h1.76l1,7.78H39l-.62-5.34-.17,0c-.46,1.51-.89,3-1.39,4.52a3.73,3.73,0,0,1-.71.94c-.27-.32-.67-.6-.8-1A39.4,39.4,0,0,0,33.72,105Z"></path>
  <path d="M82,102.43a1.37,1.37,0,0,1,1.91.76c.78,1.39,1.64,2.74,2.61,4.35v-5.17l1.41-.08V110a1.2,1.2,0,0,1-1.8-.62c-.82-1.46-1.72-2.87-2.77-4.61v5.32H82.1c0-.35-.06-.66-.06-1C82,106.91,82,104.67,82,102.43Z"></path>
  <path d="M57.59,102.61l-.38,1c-1.31-.25-2.67-.49-3.38,1a3.6,3.6,0,0,0,.18,3.66,1.76,1.76,0,0,0,2.18.63v-2.07c-.52-.18-1.52-.05-1-1.21h2.41v4.24a3.88,3.88,0,0,1-4.79-.67,5,5,0,0,1-.06-5.7A3.83,3.83,0,0,1,57.59,102.61Z"></path>
  <path d="M64.63,102.12l2.62,7.83c-1.37.49-1.37.49-2.13-1.5H62.42l-.64,1.71H60.22c.85-2.54,1.6-5,2.55-7.4C62.92,102.37,63.95,102.33,64.63,102.12Zm.18,5-1.06-3.4-1,3.4Z"></path>
  <path d="M49.68,110c-1.74.78-1.74-.68-2.15-1.59H44.85c-.44.83-.35,2.37-2.17,1.6l2.54-7.58c1.8-.37,1.81-.36,2.35,1.25Zm-4.54-2.86h2.07l-1-3.39Z"></path>
  <path d="M91.22,110.14v-7.78h4.07v1.2H92.78v1.95H95v1.22l-2.25.1v2h2.54v1.3Z"></path>
  <path d="M72.26,103.56H69.71v-1.2h4.62l-2.75,6.52h2.77v1.24H69.47Z"></path>
  <path d="M78.76,110.15H77.35v-7.77h1.42Z"></path>
</svg>
