<?xml version="1.0" encoding="UTF-8"?>
<svg xmlns="http://www.w3.org/2000/svg" version="1.1" viewBox="0 0 78.2 30">
  <!-- Generator: Adobe Illustrator 28.7.1, SVG Export Plug-In . SVG Version: 1.2.0 Build 142)  -->
  <g>
    <g id="Calque_1">
      <path d="M20.6,23.3v2.1h2.3v1.2h-2.3v3.3h-1.4v-7.8h4.1v1.2h-2.7Z"/>
      <path d="M28.8,26.9l1.8,2.9h-1.6l-1.6-2.7h-1v2.7h-1.4v-7.8h2.2c1.3,0,1.8.1,2.3.5.7.5,1.1,1.3,1.1,2.1s-.7,2-1.8,2.3ZM28.7,23.6c-.3-.2-.7-.3-1.3-.3h-1v2.7h1.2c1.2,0,1.7-.7,1.7-1.4s-.2-.8-.5-1.1Z"/>
      <path d="M38.2,29.9l-.7-1.8h-3.1l-.7,1.8h-1.5l3.7-8h.3l3.6,8h-1.5ZM35.9,24.4l-1.2,2.6h2.3l-1.2-2.6Z"/>
      <path d="M47.6,30h-.4l-4.7-5.3h0v5.1h-1.3v-8h.4l4.7,5.2h0v-5.1h1.3v8Z"/>
      <path d="M53.3,30c-2.4,0-4.1-1.9-4.1-4.1s1.7-4.1,4.1-4.1,3.4,1.6,3.7,2.6h-1.5c-.4-.6-1.2-1.3-2.2-1.3-1.6,0-2.7,1.3-2.7,2.8s1.1,2.8,2.7,2.8,1.9-.9,2.2-1.3h1.5c-.5,1.5-2,2.6-3.7,2.6Z"/>
      <path d="M58.6,22h4.3v1.2h-2.9v2h2.5v1.2h-2.5v2.1h2.9v1.2h-4.3v-7.8Z"/>
      <path d="M74.4,11.4h0c0,1.9-.7,3.3-1.8,4.3-2,1.8-5,1.7-5.7,1.6h-.1v-8.2s.2,0,.2,0c1.4,0,3.1-.1,3.4,3.4h0c0,.1.3.1.3.1v-7.5h-.3c-.4,3.5-2.1,3.5-3.5,3.5h-.1V.9c.2,0,.5,0,.7,0,2.6,0,5.2-.3,6.4,5.3h0c0,0,.3,0,.3,0V.5h-15.2v.4h1.3v12.3c0,1.8-.7,2.8-1.3,3.4-.7.7-1.8,1.1-2.7,1-3.4-.1-3.5-3.6-3.5-3.7V.9h1.6v-.4h-6.1v.4h1.6v11.6c0,3.2,1.6,5.6,6.3,5.6s4.6-2.6,4.6-4.8V.9h1.4s1.7,0,1.7,0v16.4h-1.5v.4h12.5v-6.4h-.3Z"/>
      <path d="M42.8,10.4v.4h1.4v3.6c0,2.7-1.8,3.3-3.2,3.3-1.5,0-2.5-.7-3.1-2.2-.6-1.5-.9-2.9-.9-6.3s.2-5.1,1.1-6.8c.3-.6,1-1.9,2.8-1.9h0c2.3,0,3.6,1.6,4.6,5.8h0c0,0,.3,0,.3,0V0h-.3c-.2.7-.8.8-1.3.8-.2,0-.5,0-.6,0-.1,0-.2,0-.2,0-.2,0-.4-.1-.6-.2,0,0-.2,0-.2,0-.6-.2-1-.3-1.7-.3-3,0-7.1,3-7.1,9.3s3.1,8.7,7.3,8.7,1.4-.3,2-.5c.1,0,.2,0,.3-.1.6-.3,1.2-.5,1.8-.6,0,0,0,0,0,0,0,0,0,0,0,0,.4,0,1.1.2,1.2.9h0c0,0,.2,0,.2,0v-7.1h1.3v-.4h-5.4Z"/>
      <path d="M25,0c-3.5,0-7.4,3.5-7.4,9s4,9,7.4,9,7.4-3.6,7.4-9c0-5.4-3.9-9-7.4-9ZM29.1,8.4s0,0,0,.1c0,0,0,0,0,0s0,0,0,0c0,0,0,0,0,.1h0c0,0,0,.1,0,.1h0v.2c0,1,0,4.9-1.1,6.8-.6,1.1-1.7,1.7-3,1.7s-2.5-.6-3-1.7c-1-1.9-1.1-5.8-1.1-6.8h0v-.2h0c0,0,0,0,0-.1h0c0,0,0-.1,0-.1s0,0,0,0,0,0,0,0c0,0,0,0,0-.1,0,0,0,0,0,0,0-1.5.2-4.4,1.1-6.1.7-1.4,2.1-1.7,3.1-1.7s2.3.3,3,1.7c.9,1.7,1.1,4.6,1.1,6.1,0,0,0,0,0,0Z"/>
      <path d="M15.6.5v.4h1.4l-3.8,12.6L8.7.9h1.3v-.2h0v-.2h-5.7v.4h1.7l6.4,16.9h0L17.5.9h1.6v-.4h-3.4Z"/>
    </g>
  </g>
</svg>